<svg xmlns="http://www.w3.org/2000/svg" width="638.8314208984375" height="619.0145263671875" viewBox="-236.81112670898438 -233.06396484375 638.8314208984375 619.0145263671875"><title>Neo4j Graph Visualization</title><desc>Created using Neo4j (http://www.neo4j.com/)</desc><g class="layer relationships"><g class="relationship" transform="translate(167.0499989082557 -64.08812177022234) rotate(485.6141102742409)"><path class="outline" fill="#A5ABB6" stroke="none" d="M 25 0.5 L 60.69288798611514 0.5 L 60.69288798611514 -0.5 L 25 -0.5 Z M 95.13820048611514 0.5 L 130.83108847223028 0.5 L 130.83108847223028 3.5 L 137.83108847223028 0 L 130.83108847223028 -3.5 L 130.83108847223028 -0.5 L 95.13820048611514 -0.5 Z"/><text text-anchor="middle" pointer-events="none" font-size="8px" fill="#000000" x="77.91554423611514" y="3" transform="rotate(180 77.91554423611514 0)" font-family="sans-serif">ORIGIN</text></g><g class="relationship" transform="translate(167.0499989082557 -64.08812177022234) rotate(237.13693792153197)"><path class="outline" fill="#A5ABB6" stroke="none" d="M 25 0.5 L 50.228189942982524 0.5 L 50.228189942982524 -0.5 L 25 -0.5 Z M 109.41568994298252 0.5 L 134.64387988596505 0.5 L 134.64387988596505 3.5 L 141.64387988596505 0 L 134.64387988596505 -3.5 L 134.64387988596505 -0.5 L 109.41568994298252 -0.5 Z"/><text text-anchor="middle" pointer-events="none" font-size="8px" fill="#000000" x="79.82193994298252" y="3" transform="rotate(180 79.82193994298252 0)" font-family="sans-serif">DESTINATION</text></g><g class="relationship" transform="translate(107.4911325915467 -57.425914792244555) rotate(465.6684234641168)"><path class="outline" fill="#A5ABB6" stroke="none" d="M 25 0.5 L 44.55944251223755 0.5 L 44.55944251223755 -0.5 L 25 -0.5 Z M 79.00475501223755 0.5 L 98.5641975244751 0.5 L 98.5641975244751 3.5 L 105.5641975244751 0 L 98.5641975244751 -3.5 L 98.5641975244751 -0.5 L 79.00475501223755 -0.5 Z"/><text text-anchor="middle" pointer-events="none" font-size="8px" fill="#000000" x="61.78209876223755" y="3" transform="rotate(180 61.78209876223755 0)" font-family="sans-serif">ORIGIN</text></g><g class="relationship" transform="translate(107.4911325915467 -57.425914792244555) rotate(258.1126731225845)"><path class="outline" fill="#A5ABB6" stroke="none" d="M 25 0.5 L 41.83208917102854 0.5 L 41.83208917102854 -0.5 L 25 -0.5 Z M 101.01958917102854 0.5 L 117.85167834205708 0.5 L 117.85167834205708 3.5 L 124.85167834205708 0 L 117.85167834205708 -3.5 L 117.85167834205708 -0.5 L 101.01958917102854 -0.5 Z"/><text text-anchor="middle" pointer-events="none" font-size="8px" fill="#000000" x="71.42583917102854" y="3" transform="rotate(180 71.42583917102854 0)" font-family="sans-serif">DESTINATION</text></g><g class="relationship" transform="translate(92.10179440849008 255.9952292328295) rotate(263.9567876606385)"><path class="outline" fill="#A5ABB6" stroke="none" d="M 25 0.5 L 73.65613595619526 0.5 L 73.65613595619526 -0.5 L 25 -0.5 Z M 108.10144845619526 0.5 L 156.75758441239051 0.5 L 156.75758441239051 3.5 L 163.75758441239051 0 L 156.75758441239051 -3.5 L 156.75758441239051 -0.5 L 108.10144845619526 -0.5 Z"/><text text-anchor="middle" pointer-events="none" font-size="8px" fill="#000000" x="90.87879220619526" y="3" transform="rotate(180 90.87879220619526 0)" font-family="sans-serif">ORIGIN</text></g><g class="relationship" transform="translate(92.10179440849008 255.9952292328295) rotate(445.6184497108402)"><path class="outline" fill="#A5ABB6" stroke="none" d="M 25 0.5 L 25.457667890023743 0.5 L 25.457667890023743 -0.5 L 25 -0.5 Z M 68.79360539002374 0.5 L 69.25127328004749 0.5 L 69.25127328004749 3.5 L 76.25127328004749 0 L 69.25127328004749 -3.5 L 69.25127328004749 -0.5 L 68.79360539002374 -0.5 Z"/><text text-anchor="middle" pointer-events="none" font-size="8px" fill="#000000" x="47.12563664002374" y="3" font-family="sans-serif">DESTIN…</text></g><g class="relationship" transform="translate(73.01526398154951 -106.38415396352015) rotate(450.25768703296546)"><path class="outline" fill="#A5ABB6" stroke="none" d="M 25 0.5 L 66.61361038888766 0.5 L 66.61361038888766 -0.5 L 25 -0.5 Z M 101.05892288888766 0.5 L 142.67253327777533 0.5 L 142.67253327777533 3.5 L 149.67253327777533 0 L 142.67253327777533 -3.5 L 142.67253327777533 -0.5 L 101.05892288888766 -0.5 Z"/><text text-anchor="middle" pointer-events="none" font-size="8px" fill="#000000" x="83.83626663888766" y="3" transform="rotate(180 83.83626663888766 0)" font-family="sans-serif">ORIGIN</text></g><g class="relationship" transform="translate(73.01526398154951 -106.38415396352015) rotate(272.1155249117356)"><path class="outline" fill="#A5ABB6" stroke="none" d="M 25 0.5 L 26.593916555741075 0.5 L 26.593916555741075 -0.5 L 25 -0.5 Z M 64.15251030574107 0.5 L 65.74642686148215 0.5 L 65.74642686148215 3.5 L 72.74642686148215 0 L 65.74642686148215 -3.5 L 65.74642686148215 -0.5 L 64.15251030574107 -0.5 Z"/><text text-anchor="middle" pointer-events="none" font-size="8px" fill="#000000" x="45.373213430741075" y="3" font-family="sans-serif">DESTI…</text></g><g class="relationship" transform="translate(223.26240915157643 117.63773444398066) rotate(198.09520702679453)"><path class="outline" fill="#A5ABB6" stroke="none" d="M 25 0.5 L 58.72295210073217 0.5 L 58.72295210073217 -0.5 L 25 -0.5 Z M 93.16826460073217 0.5 L 126.89121670146434 0.5 L 126.89121670146434 3.5 L 133.89121670146434 0 L 126.89121670146434 -3.5 L 126.89121670146434 -0.5 L 93.16826460073217 -0.5 Z"/><text text-anchor="middle" pointer-events="none" font-size="8px" fill="#000000" x="75.94560835073217" y="3" transform="rotate(180 75.94560835073217 0)" font-family="sans-serif">ORIGIN</text></g><g class="relationship" transform="translate(223.26240915157643 117.63773444398066) rotate(373.87726089875855)"><path class="outline" fill="#A5ABB6" stroke="none" d="M 25 0.5 L 44.036496919696845 0.5 L 44.036496919696845 -0.5 L 25 -0.5 Z M 103.22399691969684 0.5 L 122.26049383939369 0.5 L 122.26049383939369 3.5 L 129.2604938393937 0 L 122.26049383939369 -3.5 L 122.26049383939369 -0.5 L 103.22399691969684 -0.5 Z"/><text text-anchor="middle" pointer-events="none" font-size="8px" fill="#000000" x="73.63024691969684" y="3" font-family="sans-serif">DESTINATION</text></g><g class="relationship" transform="translate(132.58260466260003 -112.94127279578665) rotate(468.41890802000097)"><path class="outline" fill="#A5ABB6" stroke="none" d="M 25 0.5 L 74.78391696690313 0.5 L 74.78391696690313 -0.5 L 25 -0.5 Z M 109.22922946690313 0.5 L 159.01314643380627 0.5 L 159.01314643380627 3.5 L 166.01314643380627 0 L 159.01314643380627 -3.5 L 159.01314643380627 -0.5 L 109.22922946690313 -0.5 Z"/><text text-anchor="middle" pointer-events="none" font-size="8px" fill="#000000" x="92.00657321690313" y="3" transform="rotate(180 92.00657321690313 0)" font-family="sans-serif">ORIGIN</text></g><g class="relationship" transform="translate(132.58260466260003 -112.94127279578665) rotate(238.4456222364936)"><path class="outline" fill="#A5ABB6" stroke="none" d="M 25 0.5 L 25.630787806309648 0.5 L 25.630787806309648 -0.5 L 25 -0.5 Z M 74.30266280630966 0.5 L 74.9334506126193 0.5 L 74.9334506126193 3.5 L 81.9334506126193 0 L 74.9334506126193 -3.5 L 74.9334506126193 -0.5 L 74.30266280630966 -0.5 Z"/><text text-anchor="middle" pointer-events="none" font-size="8px" fill="#000000" x="49.96672530630965" y="3" transform="rotate(180 49.96672530630965 0)" font-family="sans-serif">DESTINA…</text></g><g class="relationship" transform="translate(235.97842446445404 58.38109048016196) rotate(536.5382705034738)"><path class="outline" fill="#A5ABB6" stroke="none" d="M 25 0.5 L 61.30138132743102 0.5 L 61.30138132743102 -0.5 L 25 -0.5 Z M 95.74669382743102 0.5 L 132.04807515486203 0.5 L 132.04807515486203 3.5 L 139.04807515486203 0 L 132.04807515486203 -3.5 L 132.04807515486203 -0.5 L 95.74669382743102 -0.5 Z"/><text text-anchor="middle" pointer-events="none" font-size="8px" fill="#000000" x="78.52403757743102" y="3" transform="rotate(180 78.52403757743102 0)" font-family="sans-serif">ORIGIN</text></g><g class="relationship" transform="translate(235.97842446445404 58.38109048016196) rotate(331.4490770586864)"><path class="outline" fill="#A5ABB6" stroke="none" d="M 25 0.5 L 37.04792227191882 0.5 L 37.04792227191882 -0.5 L 25 -0.5 Z M 96.23542227191882 0.5 L 108.28334454383764 0.5 L 108.28334454383764 3.5 L 115.28334454383764 0 L 108.28334454383764 -3.5 L 108.28334454383764 -0.5 L 96.23542227191882 -0.5 Z"/><text text-anchor="middle" pointer-events="none" font-size="8px" fill="#000000" x="66.64167227191882" y="3" font-family="sans-serif">DESTINATION</text></g><g class="relationship" transform="translate(225.30011522442717 -0.5813626817081845) rotate(515.7765257923984)"><path class="outline" fill="#A5ABB6" stroke="none" d="M 25 0.5 L 63.20194746756228 0.5 L 63.20194746756228 -0.5 L 25 -0.5 Z M 97.64725996756228 0.5 L 135.84920743512455 0.5 L 135.84920743512455 3.5 L 142.84920743512455 0 L 135.84920743512455 -3.5 L 135.84920743512455 -0.5 L 97.64725996756228 -0.5 Z"/><text text-anchor="middle" pointer-events="none" font-size="8px" fill="#000000" x="80.42460371756228" y="3" transform="rotate(180 80.42460371756228 0)" font-family="sans-serif">ORIGIN</text></g><g class="relationship" transform="translate(225.30011522442717 -0.5813626817081845) rotate(356.5448868907383)"><path class="outline" fill="#A5ABB6" stroke="none" d="M 25 0.5 L 33.97925341633052 0.5 L 33.97925341633052 -0.5 L 25 -0.5 Z M 93.16675341633052 0.5 L 102.14600683266104 0.5 L 102.14600683266104 3.5 L 109.14600683266104 0 L 102.14600683266104 -3.5 L 102.14600683266104 -0.5 L 93.16675341633052 -0.5 Z"/><text text-anchor="middle" pointer-events="none" font-size="8px" fill="#000000" x="63.57300341633052" y="3" font-family="sans-serif">DESTINATION</text></g><g class="relationship" transform="translate(13.592523737488458 -114.99317537690291) rotate(432.2588381962271)"><path class="outline" fill="#A5ABB6" stroke="none" d="M 25 0.5 L 75.4929827135817 0.5 L 75.4929827135817 -0.5 L 25 -0.5 Z M 109.9382952135817 0.5 L 160.4312779271634 0.5 L 160.4312779271634 3.5 L 167.4312779271634 0 L 160.4312779271634 -3.5 L 160.4312779271634 -0.5 L 109.9382952135817 -0.5 Z"/><text text-anchor="middle" pointer-events="none" font-size="8px" fill="#000000" x="92.7156389635817" y="3" font-family="sans-serif">ORIGIN</text></g><g class="relationship" transform="translate(13.592523737488458 -114.99317537690291) rotate(305.2851590503525)"><path class="outline" fill="#A5ABB6" stroke="none" d="M 25 0.5 L 26.722543702953246 0.5 L 26.722543702953246 -0.5 L 25 -0.5 Z M 75.39441870295325 0.5 L 77.11696240590649 0.5 L 77.11696240590649 3.5 L 84.11696240590649 0 L 77.11696240590649 -3.5 L 77.11696240590649 -0.5 L 75.39441870295325 -0.5 Z"/><text text-anchor="middle" pointer-events="none" font-size="8px" fill="#000000" x="51.058481202953246" y="3" font-family="sans-serif">DESTINA…</text></g><g class="relationship" transform="translate(40.5829417353132 -56.10199172251444) rotate(435.7257465104989)"><path class="outline" fill="#A5ABB6" stroke="none" d="M 25 0.5 L 43.452963940737945 0.5 L 43.452963940737945 -0.5 L 25 -0.5 Z M 77.89827644073794 0.5 L 96.35124038147589 0.5 L 96.35124038147589 3.5 L 103.35124038147589 0 L 96.35124038147589 -3.5 L 96.35124038147589 -0.5 L 77.89827644073794 -0.5 Z"/><text text-anchor="middle" pointer-events="none" font-size="8px" fill="#000000" x="60.675620190737945" y="3" font-family="sans-serif">ORIGIN</text></g><g class="relationship" transform="translate(40.5829417353132 -56.10199172251444) rotate(283.68952453328984)"><path class="outline" fill="#A5ABB6" stroke="none" d="M 25 0.5 L 43.05030335525203 0.5 L 43.05030335525203 -0.5 L 25 -0.5 Z M 102.23780335525203 0.5 L 120.28810671050405 0.5 L 120.28810671050405 3.5 L 127.28810671050405 0 L 120.28810671050405 -3.5 L 120.28810671050405 -0.5 L 102.23780335525203 -0.5 Z"/><text text-anchor="middle" pointer-events="none" font-size="8px" fill="#000000" x="72.64405335525203" y="3" font-family="sans-serif">DESTINATION</text></g><g class="relationship" transform="translate(-29.049547297700435 194.9419624656385) rotate(308.64737864264225)"><path class="outline" fill="#A5ABB6" stroke="none" d="M 25 0.5 L 60.36226732797624 0.5 L 60.36226732797624 -0.5 L 25 -0.5 Z M 94.80757982797624 0.5 L 130.16984715595248 0.5 L 130.16984715595248 3.5 L 137.16984715595248 0 L 130.16984715595248 -3.5 L 130.16984715595248 -0.5 L 94.80757982797624 -0.5 Z"/><text text-anchor="middle" pointer-events="none" font-size="8px" fill="#000000" x="77.58492357797624" y="3" font-family="sans-serif">ORIGIN</text></g><g class="relationship" transform="translate(-29.049547297700435 194.9419624656385) rotate(488.17972557883155)"><path class="outline" fill="#A5ABB6" stroke="none" d="M 25 0.5 L 43.41321434604811 0.5 L 43.41321434604811 -0.5 L 25 -0.5 Z M 102.60071434604811 0.5 L 121.01392869209621 0.5 L 121.01392869209621 3.5 L 128.01392869209621 0 L 121.01392869209621 -3.5 L 121.01392869209621 -0.5 L 102.60071434604811 -0.5 Z"/><text text-anchor="middle" pointer-events="none" font-size="8px" fill="#000000" x="73.00696434604811" y="3" transform="rotate(180 73.00696434604811 0)" font-family="sans-serif">DESTINATION</text></g><g class="relationship" transform="translate(-54.95648419299804 59.15740561768598) rotate(364.1055527750598)"><path class="outline" fill="#A5ABB6" stroke="none" d="M 25 0.5 L 43.03403471129401 0.5 L 43.03403471129401 -0.5 L 25 -0.5 Z M 77.47934721129401 0.5 L 95.51338192258802 0.5 L 95.51338192258802 3.5 L 102.51338192258802 0 L 95.51338192258802 -3.5 L 95.51338192258802 -0.5 L 77.47934721129401 -0.5 Z"/><text text-anchor="middle" pointer-events="none" font-size="8px" fill="#000000" x="60.25669096129401" y="3" font-family="sans-serif">ORIGIN</text></g><g class="relationship" transform="translate(-54.95648419299804 59.15740561768598) rotate(530.8126184181529)"><path class="outline" fill="#A5ABB6" stroke="none" d="M 25 0.5 L 44.32676317026623 0.5 L 44.32676317026623 -0.5 L 25 -0.5 Z M 103.51426317026623 0.5 L 122.84102634053247 0.5 L 122.84102634053247 3.5 L 129.84102634053247 0 L 122.84102634053247 -3.5 L 122.84102634053247 -0.5 L 103.51426317026623 -0.5 Z"/><text text-anchor="middle" pointer-events="none" font-size="8px" fill="#000000" x="73.92051317026623" y="3" transform="rotate(180 73.92051317026623 0)" font-family="sans-serif">DESTINATION</text></g><g class="relationship" transform="translate(-74.50129511774048 136.88580177507745) rotate(334.9431233316168)"><path class="outline" fill="#A5ABB6" stroke="none" d="M 25 0.5 L 60.264730959187574 0.5 L 60.264730959187574 -0.5 L 25 -0.5 Z M 94.71004345918757 0.5 L 129.97477441837515 0.5 L 129.97477441837515 3.5 L 136.97477441837515 0 L 129.97477441837515 -3.5 L 129.97477441837515 -0.5 L 94.71004345918757 -0.5 Z"/><text text-anchor="middle" pointer-events="none" font-size="8px" fill="#000000" x="77.48738720918757" y="3" font-family="sans-serif">ORIGIN</text></g><g class="relationship" transform="translate(-74.50129511774048 136.88580177507745) rotate(201.68347495345859)"><path class="outline" fill="#A5ABB6" stroke="none" d="M 25 0.5 L 38.63688386263455 0.5 L 38.63688386263455 -0.5 L 25 -0.5 Z M 97.82438386263455 0.5 L 111.4612677252691 0.5 L 111.4612677252691 3.5 L 118.4612677252691 0 L 111.4612677252691 -3.5 L 111.4612677252691 -0.5 L 97.82438386263455 -0.5 Z"/><text text-anchor="middle" pointer-events="none" font-size="8px" fill="#000000" x="68.23063386263455" y="3" transform="rotate(180 68.23063386263455 0)" font-family="sans-serif">DESTINATION</text></g><g class="relationship" transform="translate(35.81949784094467 235.265750433243) rotate(282.30093076896947)"><path class="outline" fill="#A5ABB6" stroke="none" d="M 25 0.5 L 64.72869501274337 0.5 L 64.72869501274337 -0.5 L 25 -0.5 Z M 99.17400751274337 0.5 L 138.90270252548675 0.5 L 138.90270252548675 3.5 L 145.90270252548675 0 L 138.90270252548675 -3.5 L 138.90270252548675 -0.5 L 99.17400751274337 -0.5 Z"/><text text-anchor="middle" pointer-events="none" font-size="8px" fill="#000000" x="81.95135126274337" y="3" font-family="sans-serif">ORIGIN</text></g><g class="relationship" transform="translate(35.81949784094467 235.265750433243) rotate(422.25140182554105)"><path class="outline" fill="#A5ABB6" stroke="none" d="M 25 0.5 L 35.65482009798713 0.5 L 35.65482009798713 -0.5 L 25 -0.5 Z M 94.84232009798713 0.5 L 105.49714019597425 0.5 L 105.49714019597425 3.5 L 112.49714019597425 0 L 105.49714019597425 -3.5 L 105.49714019597425 -0.5 L 94.84232009798713 -0.5 Z"/><text text-anchor="middle" pointer-events="none" font-size="8px" fill="#000000" x="65.24857009798713" y="3" font-family="sans-serif">DESTINATION</text></g><g class="relationship" transform="translate(83.07624396849569 196.87943032239627) rotate(265.1786201064083)"><path class="outline" fill="#A5ABB6" stroke="none" d="M 25 0.5 L 43.80206905745749 0.5 L 43.80206905745749 -0.5 L 25 -0.5 Z M 78.24738155745749 0.5 L 97.04945061491497 0.5 L 97.04945061491497 3.5 L 104.04945061491497 0 L 97.04945061491497 -3.5 L 97.04945061491497 -0.5 L 78.24738155745749 -0.5 Z"/><text text-anchor="middle" pointer-events="none" font-size="8px" fill="#000000" x="61.02472530745749" y="3" transform="rotate(180 61.02472530745749 0)" font-family="sans-serif">ORIGIN</text></g><g class="relationship" transform="translate(83.07624396849569 196.87943032239627) rotate(444.02238073705985)"><path class="outline" fill="#A5ABB6" stroke="none" d="M 25 0.5 L 47.37938845466458 0.5 L 47.37938845466458 -0.5 L 25 -0.5 Z M 106.56688845466458 0.5 L 128.94627690932916 0.5 L 128.94627690932916 3.5 L 135.94627690932916 0 L 128.94627690932916 -3.5 L 128.94627690932916 -0.5 L 106.56688845466458 -0.5 Z"/><text text-anchor="middle" pointer-events="none" font-size="8px" fill="#000000" x="76.97313845466458" y="3" font-family="sans-serif">DESTINATION</text></g><g class="relationship" transform="translate(-97.19319698470989 16.639064546816538) rotate(376.95352838338636)"><path class="outline" fill="#A5ABB6" stroke="none" d="M 25 0.5 L 67.83746484368902 0.5 L 67.83746484368902 -0.5 L 25 -0.5 Z M 102.28277734368902 0.5 L 145.12024218737804 0.5 L 145.12024218737804 3.5 L 152.12024218737804 0 L 145.12024218737804 -3.5 L 145.12024218737804 -0.5 L 102.28277734368902 -0.5 Z"/><text text-anchor="middle" pointer-events="none" font-size="8px" fill="#000000" x="85.06012109368902" y="3" font-family="sans-serif">ORIGIN</text></g><g class="relationship" transform="translate(-97.19319698470989 16.639064546816538) rotate(508.7060166693233)"><path class="outline" fill="#A5ABB6" stroke="none" d="M 25 0.5 L 31.631935152239336 0.5 L 31.631935152239336 -0.5 L 25 -0.5 Z M 90.81943515223934 0.5 L 97.45137030447867 0.5 L 97.45137030447867 3.5 L 104.45137030447867 0 L 97.45137030447867 -3.5 L 97.45137030447867 -0.5 L 90.81943515223934 -0.5 Z"/><text text-anchor="middle" pointer-events="none" font-size="8px" fill="#000000" x="61.225685152239336" y="3" transform="rotate(180 61.225685152239336 0)" font-family="sans-serif">DESTINATION</text></g><g class="relationship" transform="translate(197.38130334353298 176.68563685498845) rotate(220.8971977271263)"><path class="outline" fill="#A5ABB6" stroke="none" d="M 25 0.5 L 62.06212113711224 0.5 L 62.06212113711224 -0.5 L 25 -0.5 Z M 96.50743363711224 0.5 L 133.56955477422449 0.5 L 133.56955477422449 3.5 L 140.56955477422449 0 L 133.56955477422449 -3.5 L 133.56955477422449 -0.5 L 96.50743363711224 -0.5 Z"/><text text-anchor="middle" pointer-events="none" font-size="8px" fill="#000000" x="79.28477738711224" y="3" transform="rotate(180 79.28477738711224 0)" font-family="sans-serif">ORIGIN</text></g><g class="relationship" transform="translate(197.38130334353298 176.68563685498845) rotate(406.6093510910236)"><path class="outline" fill="#A5ABB6" stroke="none" d="M 25 0.5 L 44.45956763996338 0.5 L 44.45956763996338 -0.5 L 25 -0.5 Z M 103.64706763996338 0.5 L 123.10663527992676 0.5 L 123.10663527992676 3.5 L 130.10663527992676 0 L 123.10663527992676 -3.5 L 123.10663527992676 -0.5 L 103.64706763996338 -0.5 Z"/><text text-anchor="middle" pointer-events="none" font-size="8px" fill="#000000" x="74.05331763996338" y="3" font-family="sans-serif">DESTINATION</text></g><g class="relationship" transform="translate(-107.81069195671546 87.12302420133518) rotate(354.02725782401717)"><path class="outline" fill="#A5ABB6" stroke="none" d="M 25 0.5 L 69.7888701244281 0.5 L 69.7888701244281 -0.5 L 25 -0.5 Z M 104.2341826244281 0.5 L 149.0230527488562 0.5 L 149.0230527488562 3.5 L 156.0230527488562 0 L 149.0230527488562 -3.5 L 149.0230527488562 -0.5 L 104.2341826244281 -0.5 Z"/><text text-anchor="middle" pointer-events="none" font-size="8px" fill="#000000" x="87.0115263744281" y="3" font-family="sans-serif">ORIGIN</text></g><g class="relationship" transform="translate(-107.81069195671546 87.12302420133518) rotate(181.8575085968247)"><path class="outline" fill="#A5ABB6" stroke="none" d="M 25 0.5 L 27.74720711608719 0.5 L 27.74720711608719 -0.5 L 25 -0.5 Z M 65.3058008660872 0.5 L 68.05300798217438 0.5 L 68.05300798217438 3.5 L 75.05300798217438 0 L 68.05300798217438 -3.5 L 68.05300798217438 -0.5 L 65.3058008660872 -0.5 Z"/><text text-anchor="middle" pointer-events="none" font-size="8px" fill="#000000" x="46.52650399108719" y="3" transform="rotate(180 46.52650399108719 0)" font-family="sans-serif">DESTI…</text></g><g class="relationship" transform="translate(-18.722203105933996 -64.69239960913663) rotate(415.6295635023055)"><path class="outline" fill="#A5ABB6" stroke="none" d="M 25 0.5 L 59.831149696502166 0.5 L 59.831149696502166 -0.5 L 25 -0.5 Z M 94.27646219650217 0.5 L 129.10761189300433 0.5 L 129.10761189300433 3.5 L 136.10761189300433 0 L 129.10761189300433 -3.5 L 129.10761189300433 -0.5 L 94.27646219650217 -0.5 Z"/><text text-anchor="middle" pointer-events="none" font-size="8px" fill="#000000" x="77.05380594650217" y="3" font-family="sans-serif">ORIGIN</text></g><g class="relationship" transform="translate(-18.722203105933996 -64.69239960913663) rotate(304.376490935873)"><path class="outline" fill="#A5ABB6" stroke="none" d="M 25 0.5 L 51.33852943595717 0.5 L 51.33852943595717 -0.5 L 25 -0.5 Z M 110.52602943595717 0.5 L 136.86455887191434 0.5 L 136.86455887191434 3.5 L 143.86455887191434 0 L 136.86455887191434 -3.5 L 136.86455887191434 -0.5 L 110.52602943595717 -0.5 Z"/><text text-anchor="middle" pointer-events="none" font-size="8px" fill="#000000" x="80.93227943595717" y="3" font-family="sans-serif">DESTINATION</text></g><g class="relationship" transform="translate(141.18933782503063 221.63622319562182) rotate(245.78706670665997)"><path class="outline" fill="#A5ABB6" stroke="none" d="M 25 0.5 L 63.34805439483485 0.5 L 63.34805439483485 -0.5 L 25 -0.5 Z M 97.79336689483485 0.5 L 136.1414212896697 0.5 L 136.1414212896697 3.5 L 143.1414212896697 0 L 136.1414212896697 -3.5 L 136.1414212896697 -0.5 L 97.79336689483485 -0.5 Z"/><text text-anchor="middle" pointer-events="none" font-size="8px" fill="#000000" x="80.57071064483485" y="3" transform="rotate(180 80.57071064483485 0)" font-family="sans-serif">ORIGIN</text></g><g class="relationship" transform="translate(141.18933782503063 221.63622319562182) rotate(466.993184400615)"><path class="outline" fill="#A5ABB6" stroke="none" d="M 25 0.5 L 37.652234472556984 0.5 L 37.652234472556984 -0.5 L 25 -0.5 Z M 96.83973447255698 0.5 L 109.49196894511397 0.5 L 109.49196894511397 3.5 L 116.49196894511397 0 L 109.49196894511397 -3.5 L 109.49196894511397 -0.5 L 96.83973447255698 -0.5 Z"/><text text-anchor="middle" pointer-events="none" font-size="8px" fill="#000000" x="67.24598447255698" y="3" transform="rotate(180 67.24598447255698 0)" font-family="sans-serif">DESTINATION</text></g></g><g class="layer nodes"><g class="node" transform="translate(72.22967915345951,68.28661273243677)"><circle class="outline" cx="0" cy="0" r="25" fill="#ECB5C9" stroke="#da7298" stroke-width="2px"/><text text-anchor="middle" pointer-events="none" font-family="sans-serif" dy="1.5625" font-size="25" fill="#2A2C34"/><text text-anchor="middle" pointer-events="none" x="0" y="5" font-size="10px" fill="#2A2C34" font-family="sans-serif"> LAX</text></g><g class="node" transform="translate(76.62352310751061,-204.06395960556162)"><circle class="outline" cx="0" cy="0" r="25" fill="#ECB5C9" stroke="#da7298" stroke-width="2px"/><text text-anchor="middle" pointer-events="none" font-family="sans-serif" dy="1.5625" font-size="25" fill="#2A2C34"/><text text-anchor="middle" pointer-events="none" x="0" y="5" font-size="10px" fill="#2A2C34" font-family="sans-serif"> ABQ</text></g><g class="node" transform="translate(99.83718563999992,356.9505860165403)"><circle class="outline" cx="0" cy="0" r="25" fill="#ECB5C9" stroke="#da7298" stroke-width="2px"/><text text-anchor="middle" pointer-events="none" font-family="sans-serif" dy="1.5625" font-size="25" fill="#2A2C34"/><text text-anchor="middle" pointer-events="none" x="0" y="5" font-size="10px" fill="#2A2C34" font-family="sans-serif"> SMF</text></g><g class="node" transform="translate(373.02030835363,154.63599908113872)"><circle class="outline" cx="0" cy="0" r="25" fill="#ECB5C9" stroke="#da7298" stroke-width="2px"/><text text-anchor="middle" pointer-events="none" font-family="sans-serif" dy="1.5625" font-size="25" fill="#2A2C34"/><text text-anchor="middle" pointer-events="none" x="0" y="5" font-size="10px" fill="#2A2C34" font-family="sans-serif"> LAS</text></g><g class="node" transform="translate(359.20228741003444,-8.665880795011105)"><circle class="outline" cx="0" cy="0" r="25" fill="#ECB5C9" stroke="#da7298" stroke-width="2px"/><text text-anchor="middle" pointer-events="none" font-family="sans-serif" dy="1.5625" font-size="25" fill="#2A2C34"/><text text-anchor="middle" pointer-events="none" x="0" y="5" font-size="10px" fill="#2A2C34" font-family="sans-serif"> TUS</text></g><g class="node" transform="translate(-123.63208941565226,315.2224891534435)"><circle class="outline" cx="0" cy="0" r="25" fill="#ECB5C9" stroke="#da7298" stroke-width="2px"/><text text-anchor="middle" pointer-events="none" font-family="sans-serif" dy="1.5625" font-size="25" fill="#2A2C34"/><text text-anchor="middle" pointer-events="none" x="0" y="5" font-size="10px" fill="#2A2C34" font-family="sans-serif"> EWR</text></g><g class="node" transform="translate(-207.81112503159022,83.87990978482992)"><circle class="outline" cx="0" cy="0" r="25" fill="#ECB5C9" stroke="#da7298" stroke-width="2px"/><text text-anchor="middle" pointer-events="none" font-family="sans-serif" dy="1.5625" font-size="25" fill="#2A2C34"/><text text-anchor="middle" pointer-events="none" x="0" y="5" font-size="10px" fill="#2A2C34" font-family="sans-serif"> FAT</text></g><g class="node" transform="translate(303.93474096489535,289.39958115173755)"><circle class="outline" cx="0" cy="0" r="25" fill="#ECB5C9" stroke="#da7298" stroke-width="2px"/><text text-anchor="middle" pointer-events="none" font-family="sans-serif" dy="1.5625" font-size="25" fill="#2A2C34"/><text text-anchor="middle" pointer-events="none" x="0" y="5" font-size="10px" fill="#2A2C34" font-family="sans-serif"> IAH</text></g><g class="node" transform="translate(167.0499989082557,-64.08812177022234)"><circle class="outline" cx="0" cy="0" r="25" fill="#4C8EDA" stroke="#2870c2" stroke-width="2px"/><text text-anchor="middle" pointer-events="none" font-family="sans-serif" dy="1.5625" font-size="25" fill="#FFFFFF"/><text text-anchor="middle" pointer-events="none" x="0" y="5" font-size="10px" fill="#FFFFFF" font-family="sans-serif"> 11/2/2015</text></g><g class="node" transform="translate(107.4911325915467,-57.425914792244555)"><circle class="outline" cx="0" cy="0" r="25" fill="#4C8EDA" stroke="#2870c2" stroke-width="2px"/><text text-anchor="middle" pointer-events="none" font-family="sans-serif" dy="1.5625" font-size="25" fill="#FFFFFF"/><text text-anchor="middle" pointer-events="none" x="0" y="5" font-size="10px" fill="#FFFFFF" font-family="sans-serif"> 11/4/2015</text></g><g class="node" transform="translate(92.10179440849008,255.9952292328295)"><circle class="outline" cx="0" cy="0" r="25" fill="#4C8EDA" stroke="#2870c2" stroke-width="2px"/><text text-anchor="middle" pointer-events="none" font-family="sans-serif" dy="1.5625" font-size="25" fill="#FFFFFF"/><text text-anchor="middle" pointer-events="none" x="0" y="5" font-size="10px" fill="#FFFFFF" font-family="sans-serif"> 11/1/2015</text></g><g class="node" transform="translate(73.01526398154951,-106.38415396352015)"><circle class="outline" cx="0" cy="0" r="25" fill="#4C8EDA" stroke="#2870c2" stroke-width="2px"/><text text-anchor="middle" pointer-events="none" font-family="sans-serif" dy="1.5625" font-size="25" fill="#FFFFFF"/><text text-anchor="middle" pointer-events="none" x="0" y="5" font-size="10px" fill="#FFFFFF" font-family="sans-serif"> 11/3/2015</text></g><g class="node" transform="translate(223.26240915157643,117.63773444398066)"><circle class="outline" cx="0" cy="0" r="25" fill="#4C8EDA" stroke="#2870c2" stroke-width="2px"/><text text-anchor="middle" pointer-events="none" font-family="sans-serif" dy="1.5625" font-size="25" fill="#FFFFFF"/><text text-anchor="middle" pointer-events="none" x="0" y="5" font-size="10px" fill="#FFFFFF" font-family="sans-serif"> 11/29/20…</text></g><g class="node" transform="translate(132.58260466260003,-112.94127279578665)"><circle class="outline" cx="0" cy="0" r="25" fill="#4C8EDA" stroke="#2870c2" stroke-width="2px"/><text text-anchor="middle" pointer-events="none" font-family="sans-serif" dy="1.5625" font-size="25" fill="#FFFFFF"/><text text-anchor="middle" pointer-events="none" x="0" y="5" font-size="10px" fill="#FFFFFF" font-family="sans-serif"> 11/1/2015</text></g><g class="node" transform="translate(235.97842446445404,58.38109048016196)"><circle class="outline" cx="0" cy="0" r="25" fill="#4C8EDA" stroke="#2870c2" stroke-width="2px"/><text text-anchor="middle" pointer-events="none" font-family="sans-serif" dy="1.5625" font-size="25" fill="#FFFFFF"/><text text-anchor="middle" pointer-events="none" x="0" y="5" font-size="10px" fill="#FFFFFF" font-family="sans-serif"> 11/1/2015</text></g><g class="node" transform="translate(225.30011522442717,-0.5813626817081845)"><circle class="outline" cx="0" cy="0" r="25" fill="#4C8EDA" stroke="#2870c2" stroke-width="2px"/><text text-anchor="middle" pointer-events="none" font-family="sans-serif" dy="1.5625" font-size="25" fill="#FFFFFF"/><text text-anchor="middle" pointer-events="none" x="0" y="5" font-size="10px" fill="#FFFFFF" font-family="sans-serif"> 11/2/2015</text></g><g class="node" transform="translate(13.592523737488458,-114.99317537690291)"><circle class="outline" cx="0" cy="0" r="25" fill="#4C8EDA" stroke="#2870c2" stroke-width="2px"/><text text-anchor="middle" pointer-events="none" font-family="sans-serif" dy="1.5625" font-size="25" fill="#FFFFFF"/><text text-anchor="middle" pointer-events="none" x="0" y="5" font-size="10px" fill="#FFFFFF" font-family="sans-serif"> 11/3/2015</text></g><g class="node" transform="translate(40.5829417353132,-56.10199172251444)"><circle class="outline" cx="0" cy="0" r="25" fill="#4C8EDA" stroke="#2870c2" stroke-width="2px"/><text text-anchor="middle" pointer-events="none" font-family="sans-serif" dy="1.5625" font-size="25" fill="#FFFFFF"/><text text-anchor="middle" pointer-events="none" x="0" y="5" font-size="10px" fill="#FFFFFF" font-family="sans-serif"> 11/1/2015</text></g><g class="node" transform="translate(-29.049547297700435,194.9419624656385)"><circle class="outline" cx="0" cy="0" r="25" fill="#4C8EDA" stroke="#2870c2" stroke-width="2px"/><text text-anchor="middle" pointer-events="none" font-family="sans-serif" dy="1.5625" font-size="25" fill="#FFFFFF"/><text text-anchor="middle" pointer-events="none" x="0" y="5" font-size="10px" fill="#FFFFFF" font-family="sans-serif"> 11/30/20…</text></g><g class="node" transform="translate(-54.95648419299804,59.15740561768598)"><circle class="outline" cx="0" cy="0" r="25" fill="#4C8EDA" stroke="#2870c2" stroke-width="2px"/><text text-anchor="middle" pointer-events="none" font-family="sans-serif" dy="1.5625" font-size="25" fill="#FFFFFF"/><text text-anchor="middle" pointer-events="none" x="0" y="5" font-size="10px" fill="#FFFFFF" font-family="sans-serif"> 11/2/2015</text></g><g class="node" transform="translate(-74.50129511774048,136.88580177507745)"><circle class="outline" cx="0" cy="0" r="25" fill="#4C8EDA" stroke="#2870c2" stroke-width="2px"/><text text-anchor="middle" pointer-events="none" font-family="sans-serif" dy="1.5625" font-size="25" fill="#FFFFFF"/><text text-anchor="middle" pointer-events="none" x="0" y="5" font-size="10px" fill="#FFFFFF" font-family="sans-serif"> 11/3/2015</text></g><g class="node" transform="translate(35.81949784094467,235.265750433243)"><circle class="outline" cx="0" cy="0" r="25" fill="#4C8EDA" stroke="#2870c2" stroke-width="2px"/><text text-anchor="middle" pointer-events="none" font-family="sans-serif" dy="1.5625" font-size="25" fill="#FFFFFF"/><text text-anchor="middle" pointer-events="none" x="0" y="5" font-size="10px" fill="#FFFFFF" font-family="sans-serif"> 11/3/2015</text></g><g class="node" transform="translate(83.07624396849569,196.87943032239627)"><circle class="outline" cx="0" cy="0" r="25" fill="#4C8EDA" stroke="#2870c2" stroke-width="2px"/><text text-anchor="middle" pointer-events="none" font-family="sans-serif" dy="1.5625" font-size="25" fill="#FFFFFF"/><text text-anchor="middle" pointer-events="none" x="0" y="5" font-size="10px" fill="#FFFFFF" font-family="sans-serif"> 11/2/2015</text></g><g class="node" transform="translate(-97.19319698470989,16.639064546816538)"><circle class="outline" cx="0" cy="0" r="25" fill="#4C8EDA" stroke="#2870c2" stroke-width="2px"/><text text-anchor="middle" pointer-events="none" font-family="sans-serif" dy="1.5625" font-size="25" fill="#FFFFFF"/><text text-anchor="middle" pointer-events="none" x="0" y="5" font-size="10px" fill="#FFFFFF" font-family="sans-serif"> 11/1/2015</text></g><g class="node" transform="translate(197.38130334353298,176.68563685498845)"><circle class="outline" cx="0" cy="0" r="25" fill="#4C8EDA" stroke="#2870c2" stroke-width="2px"/><text text-anchor="middle" pointer-events="none" font-family="sans-serif" dy="1.5625" font-size="25" fill="#FFFFFF"/><text text-anchor="middle" pointer-events="none" x="0" y="5" font-size="10px" fill="#FFFFFF" font-family="sans-serif"> 11/30/20…</text></g><g class="node" transform="translate(-107.81069195671546,87.12302420133518)"><circle class="outline" cx="0" cy="0" r="25" fill="#4C8EDA" stroke="#2870c2" stroke-width="2px"/><text text-anchor="middle" pointer-events="none" font-family="sans-serif" dy="1.5625" font-size="25" fill="#FFFFFF"/><text text-anchor="middle" pointer-events="none" x="0" y="5" font-size="10px" fill="#FFFFFF" font-family="sans-serif"> 11/4/2015</text></g><g class="node" transform="translate(-18.722203105933996,-64.69239960913663)"><circle class="outline" cx="0" cy="0" r="25" fill="#4C8EDA" stroke="#2870c2" stroke-width="2px"/><text text-anchor="middle" pointer-events="none" font-family="sans-serif" dy="1.5625" font-size="25" fill="#FFFFFF"/><text text-anchor="middle" pointer-events="none" x="0" y="5" font-size="10px" fill="#FFFFFF" font-family="sans-serif"> 11/2/2015</text></g><g class="node" transform="translate(141.18933782503063,221.63622319562182)"><circle class="outline" cx="0" cy="0" r="25" fill="#4C8EDA" stroke="#2870c2" stroke-width="2px"/><text text-anchor="middle" pointer-events="none" font-family="sans-serif" dy="1.5625" font-size="25" fill="#FFFFFF"/><text text-anchor="middle" pointer-events="none" x="0" y="5" font-size="10px" fill="#FFFFFF" font-family="sans-serif"> 11/4/2015</text></g></g></svg>