<svg xmlns="http://www.w3.org/2000/svg" width="384.4969482421875" height="349.9845275878906" viewBox="-77.17961120605469 -81.69010162353516 384.4969482421875 349.9845275878906"><title>Neo4j Graph Visualization</title><desc>Created using Neo4j (http://www.neo4j.com/)</desc><g class="layer relationships"><g class="relationship" transform="translate(29.57863280048483 -7.8625722188859095) rotate(379.56955893577583)"><path class="outline" fill="#A5ABB6" stroke="none" d="M 24.018736134675446,-6.953439040707552 L 24.277555179777966,-5.987513214418485 A 145.33688175292906 145.33688175292906 0 0 1 48.97304228355497,-10.364292661207912 L 48.88414216615972,-11.36033320713318 A 146.33688175292906 146.33688175292906 0 0 0 24.018736134675446,-6.953439040707552 Z M 70.9483425479187,-11.659337349262728 L 70.88646590884997,-10.661253544395862 A 145.33688175292906 145.33688175292906 0 0 1 95.6914868164612,-6.955282768522919 L 94.99383915244977,-4.0375288829288305 L 102.6158538268493,-5.813730533428594 L 96.62168370180976,-10.845621282648368 L 95.92403603779833,-7.92786739705428 A 146.33688175292906 146.33688175292906 0 0 0 70.9483425479187,-11.659337349262728"/><text text-anchor="middle" pointer-events="none" font-size="8px" fill="#000000" x="59.917373601750114" y="-8.426358140375214" font-family="sans-serif">road</text></g><g class="relationship" transform="translate(149.17703283859169 34.65291679398665) rotate(375.582616593236)"><path class="outline" fill="#A5ABB6" stroke="none" d="M 21.40063509461097,-12.933012701892217 L 21.90063509461097,-12.06698729810778 A 87.29074331967043 87.29074331967043 0 0 1 53.78915315557441,-22.9663631858744 L 53.65446701186938,-23.95725149577308 A 88.29074331967043 88.29074331967043 0 0 0 21.40063509461097,-12.933012701892217 Z M 73.05519746103424,-24.441818796127464 L 72.97014674762707,-23.44544217248111 A 87.29074331967043 87.29074331967043 0 0 1 105.3630257029022,-14.151607019213433 L 103.99459816634288,-11.481886794698099 L 111.8204441495312,-11.403562804660922 L 107.18759575164796,-17.71123398523388 L 105.81916821508864,-15.041513760718544 A 88.29074331967043 88.29074331967043 0 0 0 73.05519746103424,-24.441818796127464"/><text text-anchor="middle" pointer-events="none" font-size="8px" fill="#000000" x="63.353962460089114" y="-21.234358578632126" font-family="sans-serif">trek</text></g><g class="relationship" transform="translate(278.31735300718003 70.66731039225841) rotate(218.20893365286577)"><path class="outline" fill="#A5ABB6" stroke="none" d="M 21.40063509461097,12.933012701892217 L 21.90063509461097,12.06698729810778 A 45.09978324468888 45.09978324468888 0 0 0 23.377335107012467,12.88311792208033 L 22.910078058445066,13.76723943554105 A 46.09978324468888 46.09978324468888 0 0 1 21.40063509461097,12.933012701892217 Z M 63.06628556137967,15.183396840528708 L 62.66247110642627,14.268555933064093 A 45.09978324468888 45.09978324468888 0 0 0 64.19299469164224,13.558478699863274 L 62.87974217327154,10.861189723317935 L 70.70554438997648,10.943770986422525 L 65.94399804946984,17.154864001923727 L 64.63074553109914,14.457575025378388 A 46.09978324468888 46.09978324468888 0 0 1 63.06628556137967,15.183396840528708"/><text text-anchor="middle" pointer-events="none" font-size="8px" fill="#000000" x="42.84339409480922" y="21.580882612069168" transform="rotate(180 42.84339409480922 18.580882612069168)" font-family="sans-serif">twowhe…</text></g><g class="relationship" transform="translate(205.09787333104538 13.030773041681433) rotate(466.82800852936145)"><path class="outline" fill="#A5ABB6" stroke="none" d="M 25 0.5 L 60.35998881171615 0.5 L 60.35998881171615 -0.5 L 25 -0.5 Z M 79.69592631171615 0.5 L 115.0559151234323 0.5 L 115.0559151234323 3.5 L 122.0559151234323 0 L 115.0559151234323 -3.5 L 115.0559151234323 -0.5 L 79.69592631171615 -0.5 Z"/><text text-anchor="middle" pointer-events="none" font-size="8px" fill="#000000" x="70.02795756171615" y="3" transform="rotate(180 70.02795756171615 0)" font-family="sans-serif">trek</text></g><g class="relationship" transform="translate(278.31735300718003 70.66731039225841) rotate(218.20893365286577)"><path class="outline" fill="#A5ABB6" stroke="none" d="M 25 0.5 L 33.423507513927156 0.5 L 33.423507513927156 -0.5 L 25 -0.5 Z M 52.759445013927156 0.5 L 61.18295252785431 0.5 L 61.18295252785431 3.5 L 68.18295252785431 0 L 61.18295252785431 -3.5 L 61.18295252785431 -0.5 L 52.759445013927156 -0.5 Z"/><text text-anchor="middle" pointer-events="none" font-size="8px" fill="#000000" x="43.091476263927156" y="3" transform="rotate(180 43.091476263927156 0)" font-family="sans-serif">trek</text></g><g class="relationship" transform="translate(278.31735300718003 70.66731039225841) rotate(218.20893365286577)"><path class="outline" fill="#A5ABB6" stroke="none" d="M 21.40063509461097,-12.933012701892217 L 21.90063509461097,-12.06698729810778 A 45.09978324468888 45.09978324468888 0 0 1 32.13398193010538,-16.394832069766053 L 31.86088649813786,-17.356819016163186 A 46.09978324468888 46.09978324468888 0 0 0 21.40063509461097,-12.933012701892217 Z M 53.88484654093332,-18.133520702931726 L 53.680196558656775,-17.15468548454499 A 45.09978324468888 45.09978324468888 0 0 1 64.19299469164224,-13.558478699863274 L 62.87974217327154,-10.861189723317935 L 70.70554438997648,-10.943770986422525 L 65.94399804946984,-17.154864001923727 L 64.63074553109914,-14.457575025378388 A 46.09978324468888 46.09978324468888 0 0 0 53.88484654093332,-18.133520702931726"/><text text-anchor="middle" pointer-events="none" font-size="8px" fill="#000000" x="42.84339409480923" y="-15.580882612069168" transform="rotate(180 42.84339409480923 -18.580882612069168)" font-family="sans-serif">road</text></g><g class="relationship" transform="translate(149.17703283859169 34.65291679398665) rotate(375.582616593236)"><path class="outline" fill="#A5ABB6" stroke="none" d="M 25 0.5 L 52.528196968579465 0.5 L 52.528196968579465 -0.5 L 25 -0.5 Z M 74.53991571857946 0.5 L 102.06811268715893 0.5 L 102.06811268715893 3.5 L 109.06811268715893 0 L 102.06811268715893 -3.5 L 102.06811268715893 -0.5 L 74.53991571857946 -0.5 Z"/><text text-anchor="middle" pointer-events="none" font-size="8px" fill="#000000" x="63.534056343579465" y="3" font-family="sans-serif">road</text></g><g class="relationship" transform="translate(149.17703283859169 34.65291679398665) rotate(375.582616593236)"><path class="outline" fill="#A5ABB6" stroke="none" d="M 21.40063509461097,12.933012701892217 L 21.90063509461097,12.06698729810778 A 87.29074331967043 87.29074331967043 0 0 0 40.618013358465475,20.12664346520353 L 40.33243905301259,21.085000035622443 A 88.29074331967043 88.29074331967043 0 0 1 21.40063509461097,12.933012701892217 Z M 86.5040037925021,22.238215917755127 L 86.2666289981573,21.266797775547673 A 87.29074331967043 87.29074331967043 0 0 0 105.3630257029022,14.151607019213433 L 103.99459816634288,11.481886794698099 L 111.8204441495312,11.403562804660922 L 107.18759575164796,17.71123398523388 L 105.81916821508864,15.041513760718544 A 88.29074331967043 88.29074331967043 0 0 1 86.5040037925021,22.238215917755127"/><text text-anchor="middle" pointer-events="none" font-size="8px" fill="#000000" x="63.35396246008914" y="27.234358578632126" font-family="sans-serif">twowheeler</text></g><g class="relationship" transform="translate(29.57863280048483 -7.8625722188859095) rotate(379.56955893577583)"><path class="outline" fill="#A5ABB6" stroke="none" d="M 24.018736134675446,6.953439040707552 L 24.277555179777966,5.987513214418485 A 145.33688175292906 145.33688175292906 0 0 0 50.30159187451575,10.476730323851598 L 50.221832930200165,11.473544504530054 A 146.33688175292906 146.33688175292906 0 0 1 24.018736134675446,6.953439040707552 Z M 69.60807519887105,11.736258160060999 L 69.55535734009743,10.737648713196876 A 145.33688175292906 145.33688175292906 0 0 0 95.6914868164612,6.955282768522919 L 94.99383915244977,4.0375288829288305 L 102.6158538268493,5.813730533428594 L 96.62168370180976,10.845621282648368 L 95.92403603779833,7.92786739705428 A 146.33688175292906 146.33688175292906 0 0 1 69.60807519887105,11.736258160060999"/><text text-anchor="middle" pointer-events="none" font-size="8px" fill="#000000" x="59.917373601750164" y="14.426358140375214" font-family="sans-serif">trek</text></g><g class="relationship" transform="translate(29.57863280048483 -7.8625722188859095) rotate(326.99524933822437)"><path class="outline" fill="#A5ABB6" stroke="none" d="M 21.40063509461097,12.933012701892217 L 21.90063509461097,12.06698729810778 A 33.64674986532928 33.64674986532928 0 0 0 26.811278549994256,14.395341375537573 L 26.45722558722781,15.330566749207634 A 34.64674986532928 34.64674986532928 0 0 1 21.40063509461097,12.933012701892217 Z M 48.38936703242198,16.199328322446497 L 48.110398383336126,15.239028112706222 A 33.64674986532928 33.64674986532928 0 0 0 53.18982529716858,13.306394137320043 L 51.90002922523365,10.597810357404564 L 59.724820128960516,10.748300599457778 L 54.90955339308182,16.917839177207345 L 53.61975732114689,14.209255397291868 A 34.64674986532928 34.64674986532928 0 0 1 48.38936703242198,16.199328322446497"/><text text-anchor="middle" pointer-events="none" font-size="8px" fill="#000000" x="37.37247131870924" y="20.048039385692775" font-family="sans-serif">road</text></g><g class="relationship" transform="translate(98.5944441370509 -52.69010033361806) rotate(494.4442949902272)"><path class="outline" fill="#A5ABB6" stroke="none" d="M 24.018736134675446,-6.953439040707552 L 24.277555179777966,-5.987513214418485 A 192.89804150388127 192.89804150388127 0 0 1 48.889635876128935,-10.892215968621741 L 48.75840796935249,-11.883568194867848 A 193.89804150388127 193.89804150388127 0 0 0 24.018736134675446,-6.953439040707552 Z M 95.22835608198349,-12.417066802004484 L 95.1199222172835,-11.42296313689394 A 192.89804150388127 192.89804150388127 0 0 1 119.83811803905546,-7.08459701272731 L 119.12839270022906,-4.169757404202038 L 126.75769801541882,-5.914377823553274 L 120.78441849082398,-10.97104982409434 L 120.07469315199758,-8.056210215569068 A 193.89804150388127 193.89804150388127 0 0 0 95.22835608198349,-12.417066802004484"/><text text-anchor="middle" pointer-events="none" font-size="8px" fill="#000000" x="71.98308064375225" y="-10.047610718529597" transform="rotate(180 71.98308064375225 -13.047610718529597)" font-family="sans-serif">twowheeler</text></g><g class="relationship" transform="translate(-7.171724183600705 55.14785415169496) rotate(420.32470375881087)"><path class="outline" fill="#A5ABB6" stroke="none" d="M 24.018736134675446,-6.953439040707552 L 24.277555179777966,-5.987513214418485 A 116.60229764067604 116.60229764067604 0 0 1 43.076124262875126,-9.403954195909748 L 42.9785247602985,-10.399179967831273 A 117.60229764067604 117.60229764067604 0 0 0 24.018736134675446,-6.953439040707552 Z M 62.37273069091775,-10.693899441912379 L 62.3054166984377,-9.696167600976949 A 116.60229764067604 116.60229764067604 0 0 1 81.19911591860912,-6.852508280720157 L 80.5110677596666,-3.9324757927200977 L 88.12719975043301,-5.733734657854296 L 82.11651346386581,-10.745884931386902 L 81.4284653049233,-7.825852443386843 A 117.60229764067604 117.60229764067604 0 0 0 62.37273069091775,-10.693899441912379"/><text text-anchor="middle" pointer-events="none" font-size="8px" fill="#000000" x="52.67713851101712" y="-7.447121492246524" font-family="sans-serif">trek</text></g><g class="relationship" transform="translate(48.50583183397452 152.8588676102507) rotate(360.46762746049006)"><path class="outline" fill="#A5ABB6" stroke="none" d="M 24.018736134675446,6.953439040707552 L 24.277555179777966,5.987513214418485 A 119.71451228223142 119.71451228223142 0 0 0 30.510436505220806,7.479997291575401 L 30.30368200272569,8.458390145033547 A 120.71451228223142 120.71451228223142 0 0 1 24.018736134675446,6.953439040707552 Z M 76.66667399406961,9.153820919783442 L 76.48935709442091,8.169667112140061 A 119.71451228223142 119.71451228223142 0 0 0 82.76419791072925,6.864795061856177 L 82.07500209512975,3.945033234624353 L 89.6918414768701,5.743298463329283 L 83.68312566486193,10.75781083149861 L 82.99392984926243,7.838049004266785 A 120.71451228223142 120.71451228223142 0 0 1 76.66667399406961,9.153820919783442"/><text text-anchor="middle" pointer-events="none" font-size="8px" fill="#000000" x="53.45897263790792" y="13.553164999186933" font-family="sans-serif">twowheeler</text></g><g class="relationship" transform="translate(48.50583183397452 152.8588676102507) rotate(360.46762746049006)"><path class="outline" fill="#A5ABB6" stroke="none" d="M 24.018736134675446,-6.953439040707552 L 24.277555179777966,-5.987513214418485 A 119.71451228223142 119.71451228223142 0 0 1 43.85597426362209,-9.52208694703296 L 43.760697789178735,-10.517537796355839 A 120.71451228223142 120.71451228223142 0 0 0 24.018736134675446,-6.953439040707552 Z M 63.153952975627064,-10.80843072409769 L 63.08857556662427,-9.81057011539923 A 119.71451228223142 119.71451228223142 0 0 1 82.76419791072925,-6.864795061856177 L 82.07500209512975,-3.945033234624353 L 89.6918414768701,-5.743298463329283 L 83.68312566486193,-10.75781083149861 L 82.99392984926243,-7.838049004266785 A 120.71451228223142 120.71451228223142 0 0 0 63.153952975627064,-10.80843072409769"/><text text-anchor="middle" pointer-events="none" font-size="8px" fill="#000000" x="53.45897263790793" y="-7.553164999186933" font-family="sans-serif">trek</text></g><g class="relationship" transform="translate(-7.171724183600705 55.14785415169496) rotate(420.32470375881087)"><path class="outline" fill="#A5ABB6" stroke="none" d="M 24.018736134675446,6.953439040707552 L 24.277555179777966,5.987513214418485 A 116.60229764067604 116.60229764067604 0 0 0 29.740374120297407,7.311014198115927 L 29.528405086310052,8.288290581044762 A 117.60229764067604 117.60229764067604 0 0 1 24.018736134675446,6.953439040707552 Z M 75.88078027577599,8.99267351309777 L 75.69860416022647,8.009407596408252 A 116.60229764067604 116.60229764067604 0 0 0 81.19911591860912,6.852508280720157 L 80.5110677596666,3.9324757927200977 L 88.12719975043301,5.733734657854296 L 82.11651346386581,10.745884931386902 L 81.4284653049233,7.825852443386843 A 117.60229764067604 117.60229764067604 0 0 1 75.88078027577599,8.99267351309777"/><text text-anchor="middle" pointer-events="none" font-size="8px" fill="#000000" x="52.67713851101714" y="13.447121492246524" font-family="sans-serif">twowheeler</text></g><g class="relationship" transform="translate(98.5944441370509 -52.69010033361806) rotate(391.6778031737038)"><path class="outline" fill="#A5ABB6" stroke="none" d="M 25 0.5 L 49.40641424194876 0.5 L 49.40641424194876 -0.5 L 25 -0.5 Z M 68.74235174194877 0.5 L 93.14876598389752 0.5 L 93.14876598389752 3.5 L 100.14876598389752 0 L 93.14876598389752 -3.5 L 93.14876598389752 -0.5 L 68.74235174194877 -0.5 Z"/><text text-anchor="middle" pointer-events="none" font-size="8px" fill="#000000" x="59.07438299194876" y="3" font-family="sans-serif">trek</text></g><g class="relationship" transform="translate(98.5944441370509 -52.69010033361806) rotate(494.4442949902272)"><path class="outline" fill="#A5ABB6" stroke="none" d="M 24.018736134675446,6.953439040707552 L 24.277555179777966,5.987513214418485 A 192.89804150388127 192.89804150388127 0 0 0 62.35326406716595,12.19603074797621 L 62.29183276426413,13.194142061920616 A 193.89804150388127 193.89804150388127 0 0 1 24.018736134675446,6.953439040707552 Z M 81.66841014189234,13.4165950118784 L 81.62990965988627,12.417336430286383 A 192.89804150388127 192.89804150388127 0 0 0 119.83811803905546,7.08459701272731 L 119.12839270022906,4.169757404202038 L 126.75769801541882,5.914377823553274 L 120.78441849082398,10.97104982409434 L 120.07469315199758,8.056210215569068 A 193.89804150388127 193.89804150388127 0 0 1 81.66841014189234,13.4165950118784"/><text text-anchor="middle" pointer-events="none" font-size="8px" fill="#000000" x="71.98308064375229" y="16.047610718529597" transform="rotate(180 71.98308064375229 13.047610718529597)" font-family="sans-serif">trek</text></g><g class="relationship" transform="translate(29.57863280048483 -7.8625722188859095) rotate(326.99524933822437)"><path class="outline" fill="#A5ABB6" stroke="none" d="M 25 0.5 L 25.755597689128088 0.5 L 25.755597689128088 -0.5 L 25 -0.5 Z M 49.54075393912809 0.5 L 50.296351628256176 0.5 L 50.296351628256176 3.5 L 57.296351628256176 0 L 50.296351628256176 -3.5 L 50.296351628256176 -0.5 L 49.54075393912809 -0.5 Z"/><text text-anchor="middle" pointer-events="none" font-size="8px" fill="#000000" x="37.64817581412809" y="3" font-family="sans-serif">Pu…</text></g><g class="relationship" transform="translate(29.57863280048483 -7.8625722188859095) rotate(326.99524933822437)"><path class="outline" fill="#A5ABB6" stroke="none" d="M 21.40063509461097,-12.933012701892217 L 21.90063509461097,-12.06698729810778 A 33.64674986532928 33.64674986532928 0 0 1 28.053013607575743,-14.837820144271205 L 27.735865696933246,-15.786196231472431 A 34.64674986532928 34.64674986532928 0 0 0 21.40063509461097,-12.933012701892217 Z M 47.078693515987645,-16.55239161503596 L 46.837554490792314,-15.581901032635571 A 33.64674986532928 33.64674986532928 0 0 1 53.18982529716858,-13.306394137320043 L 51.90002922523365,-10.597810357404564 L 59.724820128960516,-10.748300599457778 L 54.90955339308182,-16.917839177207345 L 53.61975732114689,-14.209255397291868 A 34.64674986532928 34.64674986532928 0 0 0 47.078693515987645,-16.55239161503596"/><text text-anchor="middle" pointer-events="none" font-size="8px" fill="#000000" x="37.37247131870923" y="-14.048039385692775" font-family="sans-serif">trek</text></g><g class="relationship" transform="translate(98.5944441370509 -52.69010033361806) rotate(419.9237637745455)"><path class="outline" fill="#A5ABB6" stroke="none" d="M 25 0.5 L 37.29835893664243 0.5 L 37.29835893664243 -0.5 L 25 -0.5 Z M 56.63429643664243 0.5 L 68.93265537328486 0.5 L 68.93265537328486 3.5 L 75.93265537328486 0 L 68.93265537328486 -3.5 L 68.93265537328486 -0.5 L 56.63429643664243 -0.5 Z"/><text text-anchor="middle" pointer-events="none" font-size="8px" fill="#000000" x="46.96632768664243" y="3" font-family="sans-serif">trek</text></g><g class="relationship" transform="translate(-7.171724183600705 55.14785415169496) rotate(468.79072468566835)"><path class="outline" fill="#A5ABB6" stroke="none" d="M 24.018736134675446,-6.953439040707552 L 24.277555179777966,-5.987513214418485 A 146.08664376616252 146.08664376616252 0 0 1 37.08410895937688,-8.809658492337775 L 36.91295401175405,-9.794902616351834 A 147.08664376616252 147.08664376616252 0 0 0 24.018736134675446,-6.953439040707552 Z M 83.33710597786646,-10.422244611569027 L 83.19263640121285,-9.432735368852462 A 146.08664376616252 146.08664376616252 0 0 1 96.07077275000786,-6.9576741855105695 L 95.37290172527197,-4.039973715477006 L 102.9950523508755,-5.815591872799087 L 97.00126744965571,-10.847941478888654 L 96.30339642491982,-7.930241008855091 A 147.08664376616252 147.08664376616252 0 0 0 83.33710597786646,-10.422244611569027"/><text text-anchor="middle" pointer-events="none" font-size="8px" fill="#000000" x="60.10687709343595" y="-8.451912747083497" transform="rotate(180 60.10687709343595 -11.451912747083497)" font-family="sans-serif">twowheeler</text></g><g class="relationship" transform="translate(-48.17960898757756 175.6716759799421) rotate(346.72394552080107)"><path class="outline" fill="#A5ABB6" stroke="none" d="M 21.40063509461097,12.933012701892217 L 21.90063509461097,12.06698729810778 A 51.52255124933288 51.52255124933288 0 0 0 36.46665326186978,17.738694040599988 L 36.24936477001636,18.71480146875944 A 52.52255124933288 52.52255124933288 0 0 1 21.40063509461097,12.933012701892217 Z M 55.648274685030195,19.358962543454354 L 55.496218781884124,18.370590648711065 A 51.52255124933288 51.52255124933288 0 0 0 70.40640516317288,13.677672079528762 L 69.08206307068828,10.985810637687166 L 76.90813887621736,11.036184104038302 L 72.172194619819,17.26682066865089 L 70.8478525273344,14.574959226809295 A 52.52255124933288 52.52255124933288 0 0 1 55.648274685030195,19.358962543454354"/><text text-anchor="middle" pointer-events="none" font-size="8px" fill="#000000" x="45.93539914321795" y="22.441042884764876" font-family="sans-serif">trek</text></g><g class="relationship" transform="translate(-48.17960898757756 175.6716759799421) rotate(346.72394552080107)"><path class="outline" fill="#A5ABB6" stroke="none" d="M 25 0.5 L 35.164299404115326 0.5 L 35.164299404115326 -0.5 L 25 -0.5 Z M 57.176018154115326 0.5 L 67.34031755823065 0.5 L 67.34031755823065 3.5 L 74.34031755823065 0 L 67.34031755823065 -3.5 L 67.34031755823065 -0.5 L 57.176018154115326 -0.5 Z"/><text text-anchor="middle" pointer-events="none" font-size="8px" fill="#000000" x="46.170158779115326" y="3" font-family="sans-serif">road</text></g><g class="relationship" transform="translate(-48.17960898757756 175.6716759799421) rotate(346.72394552080107)"><path class="outline" fill="#A5ABB6" stroke="none" d="M 21.40063509461097,-12.933012701892217 L 21.90063509461097,-12.06698729810778 A 51.52255124933288 51.52255124933288 0 0 1 23.88003752721418,-13.152682572435609 L 23.4184557030344,-14.039780210571834 A 52.52255124933288 52.52255124933288 0 0 0 21.40063509461097,-12.933012701892217 Z M 68.76105509748582,-15.545428604391383 L 68.35933918924582,-14.629664262943813 A 51.52255124933288 51.52255124933288 0 0 1 70.40640516317288,-13.677672079528762 L 69.08206307068828,-10.985810637687166 L 76.90813887621736,-11.036184104038302 L 72.172194619819,-17.26682066865089 L 70.8478525273344,-14.574959226809295 A 52.52255124933288 52.52255124933288 0 0 0 68.76105509748582,-15.545428604391383"/><text text-anchor="middle" pointer-events="none" font-size="8px" fill="#000000" x="45.935399143217936" y="-16.441042884764876" font-family="sans-serif">twowheeler</text></g><g class="relationship" transform="translate(-7.171724183600705 55.14785415169496) rotate(468.79072468566835)"><path class="outline" fill="#A5ABB6" stroke="none" d="M 24.018736134675446,6.953439040707552 L 24.277555179777966,5.987513214418485 A 146.08664376616252 146.08664376616252 0 0 0 50.49079568437846,10.504275673544726 L 50.41141289593031,11.501119880478882 A 147.08664376616252 147.08664376616252 0 0 1 24.018736134675446,6.953439040707552 Z M 69.7974713353926,11.763088878634989 L 69.74505386011128,10.764463619448577 A 146.08664376616252 146.08664376616252 0 0 0 96.07077275000786,6.9576741855105695 L 95.37290172527197,4.039973715477006 L 102.9950523508755,5.815591872799087 L 97.00126744965571,10.847941478888654 L 96.30339642491982,7.930241008855091 A 147.08664376616252 147.08664376616252 0 0 1 69.7974713353926,11.763088878634989"/><text text-anchor="middle" pointer-events="none" font-size="8px" fill="#000000" x="60.106877093435955" y="14.451912747083497" transform="rotate(180 60.106877093435955 11.451912747083497)" font-family="sans-serif">trek</text></g><g class="relationship" transform="translate(-48.17960898757756 175.6716759799421) rotate(389.6846320349358)"><path class="outline" fill="#A5ABB6" stroke="none" d="M 25 0.5 L 51.06814372234585 0.5 L 51.06814372234585 -0.5 L 25 -0.5 Z M 70.40408122234585 0.5 L 96.4722249446917 0.5 L 96.4722249446917 3.5 L 103.4722249446917 0 L 96.4722249446917 -3.5 L 96.4722249446917 -0.5 L 70.40408122234585 -0.5 Z"/><text text-anchor="middle" pointer-events="none" font-size="8px" fill="#000000" x="60.73611247234585" y="3" font-family="sans-serif">trek</text></g><g class="relationship" transform="translate(63.43248333728715 239.29441899771325) rotate(319.20981354101013)"><path class="outline" fill="#A5ABB6" stroke="none" d="M 25 0.5 L 52.273736263755325 0.5 L 52.273736263755325 -0.5 L 25 -0.5 Z M 71.60967376375532 0.5 L 98.88341002751065 0.5 L 98.88341002751065 3.5 L 105.88341002751065 0 L 98.88341002751065 -3.5 L 98.88341002751065 -0.5 L 71.60967376375532 -0.5 Z"/><text text-anchor="middle" pointer-events="none" font-size="8px" fill="#000000" x="61.941705013755325" y="3" font-family="sans-serif">trek</text></g></g><g class="layer nodes"><g class="node" transform="translate(29.57863280048483,-7.8625722188859095)"><circle class="outline" cx="0" cy="0" r="25" fill="#F16667" stroke="#eb2728" stroke-width="2px"/><text text-anchor="middle" pointer-events="none" font-family="sans-serif" dy="1.5625" font-size="25" fill="#FFFFFF"/><text text-anchor="middle" pointer-events="none" x="0" y="5" font-size="10px" fill="#FFFFFF" font-family="sans-serif"> Darjeeling</text></g><g class="node" transform="translate(162.52522421593474,153.7894733770845)"><circle class="outline" cx="0" cy="0" r="25" fill="#D9C8AE" stroke="#c0a378" stroke-width="2px"/><text text-anchor="middle" pointer-events="none" font-family="sans-serif" dy="1.5625" font-size="25" fill="#2A2C34"/><text text-anchor="middle" pointer-events="none" x="0" y="5" font-size="10px" fill="#2A2C34" font-family="sans-serif"> Sandak…</text></g><g class="node" transform="translate(149.17703283859169,34.65291679398665)"><circle class="outline" cx="0" cy="0" r="25" fill="#8DCC93" stroke="#5db665" stroke-width="2px"/><text text-anchor="middle" pointer-events="none" font-family="sans-serif" dy="1.5625" font-size="25" fill="#2A2C34"/><text text-anchor="middle" pointer-events="none" x="0" y="5" font-size="10px" fill="#2A2C34" font-family="sans-serif"> Tumbling</text></g><g class="node" transform="translate(278.31735300718003,70.66731039225841)"><circle class="outline" cx="0" cy="0" r="25" fill="#8DCC93" stroke="#5db665" stroke-width="2px"/><text text-anchor="middle" pointer-events="none" font-family="sans-serif" dy="1.5625" font-size="25" fill="#2A2C34"/><text text-anchor="middle" pointer-events="none" x="0" y="5" font-size="10px" fill="#2A2C34" font-family="sans-serif"> Gairibus</text></g><g class="node" transform="translate(205.09787333104538,13.030773041681433)"><circle class="outline" cx="0" cy="0" r="25" fill="#8DCC93" stroke="#5db665" stroke-width="2px"/><text text-anchor="middle" pointer-events="none" font-family="sans-serif" dy="1.5625" font-size="25" fill="#2A2C34"/><text text-anchor="middle" pointer-events="none" x="0" y="5" font-size="10px" fill="#2A2C34" font-family="sans-serif"> BhikeBh…</text></g><g class="node" transform="translate(98.5944441370509,-52.69010033361806)"><circle class="outline" cx="0" cy="0" r="25" fill="#F16667" stroke="#eb2728" stroke-width="2px"/><text text-anchor="middle" pointer-events="none" font-family="sans-serif" dy="1.5625" font-size="25" fill="#FFFFFF"/><text text-anchor="middle" pointer-events="none" x="0" y="5" font-size="10px" fill="#FFFFFF" font-family="sans-serif"> Rimbik</text></g><g class="node" transform="translate(-7.171724183600705,55.14785415169496)"><circle class="outline" cx="0" cy="0" r="25" fill="#8DCC93" stroke="#5db665" stroke-width="2px"/><text text-anchor="middle" pointer-events="none" font-family="sans-serif" dy="1.5625" font-size="25" fill="#2A2C34"/><text text-anchor="middle" pointer-events="none" x="0" y="5" font-size="10px" fill="#2A2C34" font-family="sans-serif"> Sirikhola</text></g><g class="node" transform="translate(48.50583183397452,152.8588676102507)"><circle class="outline" cx="0" cy="0" r="25" fill="#8DCC93" stroke="#5db665" stroke-width="2px"/><text text-anchor="middle" pointer-events="none" font-family="sans-serif" dy="1.5625" font-size="25" fill="#2A2C34"/><text text-anchor="middle" pointer-events="none" x="0" y="5" font-size="10px" fill="#2A2C34" font-family="sans-serif"> Gurdum</text></g><g class="node" transform="translate(-48.17960898757756,175.6716759799421)"><circle class="outline" cx="0" cy="0" r="25" fill="#8DCC93" stroke="#5db665" stroke-width="2px"/><text text-anchor="middle" pointer-events="none" font-family="sans-serif" dy="1.5625" font-size="25" fill="#2A2C34"/><text text-anchor="middle" pointer-events="none" x="0" y="5" font-size="10px" fill="#2A2C34" font-family="sans-serif"> Rammam</text></g><g class="node" transform="translate(63.43248333728715,239.29441899771325)"><circle class="outline" cx="0" cy="0" r="25" fill="#D9C8AE" stroke="#c0a378" stroke-width="2px"/><text text-anchor="middle" pointer-events="none" font-family="sans-serif" dy="1.5625" font-size="25" fill="#2A2C34"/><text text-anchor="middle" pointer-events="none" x="0" y="5" font-size="10px" fill="#2A2C34" font-family="sans-serif"> Sabargr…</text></g></g></svg>