<svg xmlns="http://www.w3.org/2000/svg" width="268.8885192871094" height="289.31597900390625" viewBox="-31.007396697998047 -40.473751068115234 268.8885192871094 289.31597900390625"><title>Neo4j Graph Visualization</title><desc>Created using Neo4j (http://www.neo4j.com/)</desc><g class="layer relationships"><g class="relationship" transform="translate(116.5808749688058 -11.473752266529997) rotate(391.66268236424776)"><path class="outline" fill="#A5ABB6" stroke="none" d="M 25 0.5 L 33.498056766756534 0.5 L 33.498056766756534 -0.5 L 25 -0.5 Z M 67.94336926675653 0.5 L 76.44142603351307 0.5 L 76.44142603351307 3.5 L 83.44142603351307 0 L 76.44142603351307 -3.5 L 76.44142603351307 -0.5 L 67.94336926675653 -0.5 Z"/><text text-anchor="middle" pointer-events="none" font-size="8px" fill="#000000" x="50.720713016756534" y="3" font-family="sans-serif">ORIGIN</text></g><g class="relationship" transform="translate(116.5808749688058 -11.473752266529997) rotate(509.7682479405628)"><path class="outline" fill="#A5ABB6" stroke="none" d="M 25 0.5 L 26.05548961404179 0.5 L 26.05548961404179 -0.5 L 25 -0.5 Z M 74.72736461404179 0.5 L 75.78285422808358 0.5 L 75.78285422808358 3.5 L 82.78285422808358 0 L 75.78285422808358 -3.5 L 75.78285422808358 -0.5 L 74.72736461404179 -0.5 Z"/><text text-anchor="middle" pointer-events="none" font-size="8px" fill="#000000" x="50.39142711404179" y="3" transform="rotate(180 50.39142711404179 0)" font-family="sans-serif">DESTINA…</text></g><g class="relationship" transform="translate(-2.007396403338903 147.4835615165202) rotate(283.6710435635159)"><path class="outline" fill="#A5ABB6" stroke="none" d="M 25 0.5 L 33.14795503201868 0.5 L 33.14795503201868 -0.5 L 25 -0.5 Z M 67.59326753201867 0.5 L 75.74122256403736 0.5 L 75.74122256403736 3.5 L 82.74122256403736 0 L 75.74122256403736 -3.5 L 75.74122256403736 -0.5 L 67.59326753201867 -0.5 Z"/><text text-anchor="middle" pointer-events="none" font-size="8px" fill="#000000" x="50.37061128201868" y="3" font-family="sans-serif">ORIGIN</text></g><g class="relationship" transform="translate(-2.007396403338903 147.4835615165202) rotate(401.87905171160764)"><path class="outline" fill="#A5ABB6" stroke="none" d="M 25 0.5 L 26.3604164690947 0.5 L 26.3604164690947 -0.5 L 25 -0.5 Z M 75.0322914690947 0.5 L 76.3927079381894 0.5 L 76.3927079381894 3.5 L 83.3927079381894 0 L 76.3927079381894 -3.5 L 76.3927079381894 -0.5 L 75.0322914690947 -0.5 Z"/><text text-anchor="middle" pointer-events="none" font-size="8px" fill="#000000" x="50.6963539690947" y="3" font-family="sans-serif">DESTINA…</text></g></g><g class="layer nodes"><g class="node" transform="translate(208.88113923701135,45.44903839065144)"><circle class="outline" cx="0" cy="0" r="25" fill="#ECB5C9" stroke="#da7298" stroke-width="2px"/><text text-anchor="middle" pointer-events="none" font-family="sans-serif" dy="1.5625" font-size="25" fill="#2A2C34"/><text text-anchor="middle" pointer-events="none" x="0" y="5" font-size="10px" fill="#2A2C34" font-family="sans-serif"> MSN</text></g><g class="node" transform="translate(78.69700856970043,219.8422386196935)"><circle class="outline" cx="0" cy="0" r="25" fill="#ECB5C9" stroke="#da7298" stroke-width="2px"/><text text-anchor="middle" pointer-events="none" font-family="sans-serif" dy="1.5625" font-size="25" fill="#2A2C34"/><text text-anchor="middle" pointer-events="none" x="0" y="5" font-size="10px" fill="#2A2C34" font-family="sans-serif"> GRR</text></g><g class="node" transform="translate(116.5808749688058,-11.473752266529997)"><circle class="outline" cx="0" cy="0" r="25" fill="#4C8EDA" stroke="#2870c2" stroke-width="2px"/><text text-anchor="middle" pointer-events="none" font-family="sans-serif" dy="1.5625" font-size="25" fill="#FFFFFF"/><text text-anchor="middle" pointer-events="none" x="0" y="5" font-size="10px" fill="#FFFFFF" font-family="sans-serif"> 11/30/20…</text></g><g class="node" transform="translate(23.4569301060796,42.7947888853772)"><circle class="outline" cx="0" cy="0" r="25" fill="#ECB5C9" stroke="#da7298" stroke-width="2px"/><text text-anchor="middle" pointer-events="none" font-family="sans-serif" dy="1.5625" font-size="25" fill="#2A2C34"/><text text-anchor="middle" pointer-events="none" x="0" y="5" font-size="10px" fill="#2A2C34" font-family="sans-serif"> ORD</text></g><g class="node" transform="translate(-2.007396403338903,147.4835615165202)"><circle class="outline" cx="0" cy="0" r="25" fill="#4C8EDA" stroke="#2870c2" stroke-width="2px"/><text text-anchor="middle" pointer-events="none" font-family="sans-serif" dy="1.5625" font-size="25" fill="#FFFFFF"/><text text-anchor="middle" pointer-events="none" x="0" y="5" font-size="10px" fill="#FFFFFF" font-family="sans-serif"> 11/17/20…</text></g></g></svg>