<svg xmlns="http://www.w3.org/2000/svg" width="316.6506042480469" height="402.3583679199219" viewBox="-18.556480407714844 -109.82903289794922 316.6506042480469 402.3583679199219"><title>Neo4j Graph Visualization</title><desc>Created using Neo4j (http://www.neo4j.com/)</desc><g class="layer relationships"><g class="relationship" transform="translate(22.0688801297494 -27.672668133723764) rotate(329.79893631531286)"><path class="outline" fill="#A5ABB6" stroke="none" d="M 24.018736134675446,-6.953439040707552 L 24.277555179777966,-5.987513214418485 A 103.04520007629111 103.04520007629111 0 0 1 39.68853365948532,-8.88174288088564 L 39.57927013437109,-9.875755698750481 A 104.04520007629111 104.04520007629111 0 0 0 24.018736134675446,-6.953439040707552 Z M 58.97784076784554,-10.188343359091604 L 58.90066060676136,-9.191326196383258 A 103.04520007629111 103.04520007629111 0 0 1 74.39688870008237,-6.795133811780093 L 73.71419974756058,-3.873843721065941 L 81.32701373716903,-5.68907460434827 L 75.3071406367781,-10.690187266065628 L 74.62445168425631,-7.768897175351477 A 104.04520007629111 104.04520007629111 0 0 0 58.97784076784554,-10.188343359091604"/><text text-anchor="middle" pointer-events="none" font-size="8px" fill="#000000" x="49.279309534110574" y="-6.985252632438332" font-family="sans-serif">trek</text></g><g class="relationship" transform="translate(113.39676045438281 -80.82903361573703) rotate(369.3893955455384)"><path class="outline" fill="#A5ABB6" stroke="none" d="M 21.40063509461097,-12.933012701892217 L 21.90063509461097,-12.06698729810778 A 67.93349480878419 67.93349480878419 0 0 1 43.058813687986465,-19.949922903710586 L 42.87026798093768,-20.93198731929313 A 68.93349480878419 68.93349480878419 0 0 0 21.40063509461097,-12.933012701892217 Z M 64.93816371655664,-21.568943405332405 L 64.80657628953419,-20.577638836065418 A 67.93349480878419 67.93349480878419 0 0 1 86.38420945692577,-13.92820712766083 L 85.03656083187771,-11.24793789054937 L 92.86277911436052,-11.23040520873391 L 88.1810742903232,-17.501899443809442 L 86.83342566527513,-14.821630206697982 A 68.93349480878419 68.93349480878419 0 0 0 64.93816371655664,-21.568943405332405"/><text text-anchor="middle" pointer-events="none" font-size="8px" fill="#000000" x="53.89297651966119" y="-18.63986166112187" font-family="sans-serif">road</text></g><g class="relationship" transform="translate(227.0517319975357 -62.03518649945423) rotate(428.5604812789869)"><path class="outline" fill="#A5ABB6" stroke="none" d="M 21.40063509461097,12.933012701892217 L 21.90063509461097,12.06698729810778 A 67.75086327498836 67.75086327498836 0 0 0 44.27701795010229,20.160910195403147 L 44.10729245545685,21.146401573583276 A 68.75086327498836 68.75086327498836 0 0 1 21.40063509461097,12.933012701892217 Z M 63.511705239405174,21.70730037430559 L 63.399188273962,20.713650570558087 A 67.75086327498836 67.75086327498836 0 0 0 86.2057404830326,13.925773590395089 L 84.85831822389095,11.245390547699587 L 92.68453795917905,11.228518826180474 L 88.00230349522148,17.499617647322424 L 86.65488123607983,14.819234604626924 A 68.75086327498836 68.75086327498836 0 0 1 63.511705239405174,21.70730037430559"/><text text-anchor="middle" pointer-events="none" font-size="8px" fill="#000000" x="53.80404908987454" y="24.61538649062244" font-family="sans-serif">trek</text></g><g class="relationship" transform="translate(269.0941018109203 45.026870955939714) rotate(470.8259716821484)"><path class="outline" fill="#A5ABB6" stroke="none" d="M 25 0.5 L 52.87600524130926 0.5 L 52.87600524130926 -0.5 L 25 -0.5 Z M 72.21194274130926 0.5 L 100.08794798261852 0.5 L 100.08794798261852 3.5 L 107.08794798261852 0 L 100.08794798261852 -3.5 L 100.08794798261852 -0.5 L 72.21194274130926 -0.5 Z"/><text text-anchor="middle" pointer-events="none" font-size="8px" fill="#000000" x="62.54397399130926" y="3" transform="rotate(180 62.54397399130926 0)" font-family="sans-serif">trek</text></g><g class="relationship" transform="translate(227.0517319975357 -62.03518649945423) rotate(428.5604812789869)"><path class="outline" fill="#A5ABB6" stroke="none" d="M 25 0.5 L 30.778109782487448 0.5 L 30.778109782487448 -0.5 L 25 -0.5 Z M 77.24295353248745 0.5 L 83.0210633149749 0.5 L 83.0210633149749 3.5 L 90.0210633149749 0 L 83.0210633149749 -3.5 L 83.0210633149749 -0.5 L 77.24295353248745 -0.5 Z"/><text text-anchor="middle" pointer-events="none" font-size="8px" fill="#000000" x="54.01053165748745" y="3" font-family="sans-serif">twowheeler</text></g><g class="relationship" transform="translate(227.0517319975357 -62.03518649945423) rotate(428.5604812789869)"><path class="outline" fill="#A5ABB6" stroke="none" d="M 21.40063509461097,-12.933012701892217 L 21.90063509461097,-12.06698729810778 A 67.75086327498836 67.75086327498836 0 0 1 42.9704904035803,-19.922686312181384 L 42.78148061522455,-20.904661515486296 A 68.75086327498836 68.75086327498836 0 0 0 21.40063509461097,-12.933012701892217 Z M 64.84926706825968,-21.54254708790323 L 64.71729490232681,-20.551293665503607 A 67.75086327498836 67.75086327498836 0 0 1 86.2057404830326,-13.925773590395089 L 84.85831822389095,-11.245390547699587 L 92.68453795917905,-11.228518826180474 L 88.00230349522148,-17.499617647322424 L 86.65488123607983,-14.819234604626924 A 68.75086327498836 68.75086327498836 0 0 0 64.84926706825968,-21.54254708790323"/><text text-anchor="middle" pointer-events="none" font-size="8px" fill="#000000" x="53.80404908987455" y="-18.615386490622456" font-family="sans-serif">road</text></g><g class="relationship" transform="translate(113.39676045438281 -80.82903361573703) rotate(369.3893955455384)"><path class="outline" fill="#A5ABB6" stroke="none" d="M 25 0.5 L 44.431209295144676 0.5 L 44.431209295144676 -0.5 L 25 -0.5 Z M 63.767146795144676 0.5 L 83.19835609028935 0.5 L 83.19835609028935 3.5 L 90.19835609028935 0 L 83.19835609028935 -3.5 L 83.19835609028935 -0.5 L 63.767146795144676 -0.5 Z"/><text text-anchor="middle" pointer-events="none" font-size="8px" fill="#000000" x="54.099178045144676" y="3" font-family="sans-serif">trek</text></g><g class="relationship" transform="translate(113.39676045438281 -80.82903361573703) rotate(369.3893955455384)"><path class="outline" fill="#A5ABB6" stroke="none" d="M 21.40063509461097,12.933012701892217 L 21.90063509461097,12.06698729810778 A 67.93349480878419 67.93349480878419 0 0 0 31.406468800925936,16.611691630317445 L 31.046397325626035,17.544616350043185 A 68.93349480878419 68.93349480878419 0 0 1 21.40063509461097,12.933012701892217 Z M 76.93772963959384,18.86919952571283 L 76.6320676794823,17.91705942775414 A 67.93349480878419 67.93349480878419 0 0 0 86.38420945692577,13.92820712766083 L 85.03656083187771,11.24793789054937 L 92.86277911436052,11.23040520873391 L 88.1810742903232,17.501899443809442 L 86.83342566527513,14.821630206697982 A 68.93349480878419 68.93349480878419 0 0 1 76.93772963959384,18.86919952571283"/><text text-anchor="middle" pointer-events="none" font-size="8px" fill="#000000" x="53.89297651966122" y="24.63986166112187" font-family="sans-serif">twowheeler</text></g><g class="relationship" transform="translate(22.0688801297494 -27.672668133723764) rotate(329.79893631531286)"><path class="outline" fill="#A5ABB6" stroke="none" d="M 24.018736134675446,6.953439040707552 L 24.277555179777966,5.987513214418485 A 103.04520007629111 103.04520007629111 0 0 0 38.36605162013821,8.7277201929858 L 38.243954095591036,9.720238300880794 A 104.04520007629111 104.04520007629111 0 0 1 24.018736134675446,6.953439040707552 Z M 60.31747423076208,10.07592997244339 L 60.22741857458602,9.079993238111982 A 103.04520007629111 103.04520007629111 0 0 0 74.39688870008237,6.795133811780093 L 73.71419974756058,3.873843721065941 L 81.32701373716903,5.68907460434827 L 75.3071406367781,10.690187266065628 L 74.62445168425631,7.768897175351477 A 104.04520007629111 104.04520007629111 0 0 1 60.31747423076208,10.07592997244339"/><text text-anchor="middle" pointer-events="none" font-size="8px" fill="#000000" x="49.27930953411058" y="12.985252632438332" font-family="sans-serif">road</text></g><g class="relationship" transform="translate(22.0688801297494 -27.672668133723764) rotate(390.00492328834446)"><path class="outline" fill="#A5ABB6" stroke="none" d="M 21.40063509461097,12.933012701892217 L 21.90063509461097,12.06698729810778 A 72.503754785373 72.503754785373 0 0 0 46.58219706138202,20.851486056351874 L 46.42261476857296,21.83867068539641 A 73.503754785373 73.503754785373 0 0 1 21.40063509461097,12.933012701892217 Z M 65.82660705905711,22.3789473808976 L 65.72220294263929,21.38441242400819 A 72.503754785373 72.503754785373 0 0 0 90.85432995425096,13.98690531516618 L 89.50122137813274,11.30938833459718 L 97.32738767159832,11.27590480098517 L 92.65847472240857,17.556927955924845 L 91.30536614629035,14.879410975355846 A 73.503754785373 73.503754785373 0 0 1 65.82660705905711,22.3789473808976"/><text text-anchor="middle" pointer-events="none" font-size="8px" fill="#000000" x="56.12061376276917" y="25.252366378343865" font-family="sans-serif">trek</text></g><g class="relationship" transform="translate(125.67504413368277 32.15624930346166) rotate(499.3129588427202)"><path class="outline" fill="#A5ABB6" stroke="none" d="M 24.018736134675446,-6.953439040707552 L 24.277555179777966,-5.987513214418485 A 150.02510199280403 150.02510199280403 0 0 1 51.48515582475198,-10.648675441875213 L 51.40769043502827,-11.645670483685848 A 151.02510199280403 151.02510199280403 0 0 0 24.018736134675446,-6.953439040707552 Z M 70.79280201455677,-11.90379450861721 L 70.74191051973786,-10.905090320303628 A 150.02510199280403 150.02510199280403 0 0 1 98.06397496594202,-6.970022269491109 L 97.36495062236274,-4.052597897363606 L 104.9878025581694,-5.825202863160699 L 98.99600742404773,-10.859921432327779 L 98.29698308046845,-7.942497060200276 A 151.02510199280403 151.02510199280403 0 0 0 70.79280201455677,-11.90379450861721"/><text text-anchor="middle" pointer-events="none" font-size="8px" fill="#000000" x="61.10275728406484" y="-8.5861519709959" transform="rotate(180 61.10275728406484 -11.5861519709959)" font-family="sans-serif">trek</text></g><g class="relationship" transform="translate(27.629455240037263 116.45018598981542) rotate(401.8065525280447)"><path class="outline" fill="#A5ABB6" stroke="none" d="M 24.018736134675446,-6.953439040707552 L 24.277555179777966,-5.987513214418485 A 103.54805990852388 103.54805990852388 0 0 1 26.528282991724147,-6.563610920639306 L 26.291200015978546,-7.535100324910715 A 104.54805990852388 104.54805990852388 0 0 0 24.018736134675446,-6.953439040707552 Z M 72.58636146455466,-8.27943445487196 L 72.38063219214297,-7.3008255102608075 A 103.54805990852388 103.54805990852388 0 0 1 74.64871689087997,-6.797381322752372 L 73.96581800090998,-3.876140301186752 L 81.57876242286142,-5.690824083083314 L 75.5592487441733,-10.692369351506532 L 74.87634985420331,-7.771128329940911 A 104.54805990852388 104.54805990852388 0 0 0 72.58636146455466,-8.27943445487196"/><text text-anchor="middle" pointer-events="none" font-size="8px" fill="#000000" x="49.40509546283255" y="-7.002382062828389" font-family="sans-serif">twowheeler</text></g><g class="relationship" transform="translate(106.58401565809827 187.05995993692653) rotate(350.86749354275616)"><path class="outline" fill="#A5ABB6" stroke="none" d="M 24.018736134675446,6.953439040707552 L 24.277555179777966,5.987513214418485 A 125.70144049031713 125.70144049031713 0 0 0 45.35820276737977,9.747816040137167 L 45.26708782738037,10.74365642278336 A 126.70144049031713 126.70144049031713 0 0 1 24.018736134675446,6.953439040707552 Z M 64.65857402184511,11.02745264505701 L 64.59664029784021,10.029372380834303 A 125.70144049031713 125.70144049031713 0 0 0 85.77830066207629,6.887582402507455 L 85.08697639625419,3.9683238049375973 L 92.7051247673763,5.7610355485175235 L 86.70006634983909,10.779927199267265 L 86.00874208401699,7.860668601697407 A 126.70144049031713 126.70144049031713 0 0 1 64.65857402184511,11.02745264505701"/><text text-anchor="middle" pointer-events="none" font-size="8px" fill="#000000" x="54.964709803133175" y="13.757172814818503" font-family="sans-serif">trek</text></g><g class="relationship" transform="translate(106.58401565809827 187.05995993692653) rotate(350.86749354275616)"><path class="outline" fill="#A5ABB6" stroke="none" d="M 24.018736134675446,-6.953439040707552 L 24.277555179777966,-5.987513214418485 A 125.70144049031713 125.70144049031713 0 0 1 31.995674227481665,-7.796790363666446 L 31.79825558493299,-8.777109637971634 A 126.70144049031713 126.70144049031713 0 0 0 24.018736134675446,-6.953439040707552 Z M 78.17918669762345,-9.455898922264538 L 78.01054059036973,-8.47022225595444 A 125.70144049031713 125.70144049031713 0 0 1 85.77830066207629,-6.887582402507455 L 85.08697639625419,-3.9683238049375973 L 92.7051247673763,-5.7610355485175235 L 86.70006634983909,-10.779927199267265 L 86.00874208401699,-7.860668601697407 A 126.70144049031713 126.70144049031713 0 0 0 78.17918669762345,-9.455898922264538"/><text text-anchor="middle" pointer-events="none" font-size="8px" fill="#000000" x="54.964709803133125" y="-7.757172814818503" font-family="sans-serif">twowheeler</text></g><g class="relationship" transform="translate(27.629455240037263 116.45018598981542) rotate(401.8065525280447)"><path class="outline" fill="#A5ABB6" stroke="none" d="M 24.018736134675446,6.953439040707552 L 24.277555179777966,5.987513214418485 A 103.54805990852388 103.54805990852388 0 0 0 39.81388535279389,8.901366494384249 L 39.705106107439825,9.895432425688696 A 104.54805990852388 104.54805990852388 0 0 1 24.018736134675446,6.953439040707552 Z M 59.10350935844957,10.207320172802739 L 59.026743283613264,9.210271041739361 A 103.54805990852388 103.54805990852388 0 0 0 74.64871689087997,6.797381322752372 L 73.96581800090998,3.876140301186752 L 81.57876242286142,5.690824083083314 L 75.5592487441733,10.692369351506532 L 74.87634985420331,7.771128329940911 A 104.54805990852388 104.54805990852388 0 0 1 59.10350935844957,10.207320172802739"/><text text-anchor="middle" pointer-events="none" font-size="8px" fill="#000000" x="49.40509546283257" y="13.002382062828389" font-family="sans-serif">trek</text></g><g class="relationship" transform="translate(125.67504413368277 32.15624930346166) rotate(499.3129588427202)"><path class="outline" fill="#A5ABB6" stroke="none" d="M 24.018736134675446,6.953439040707552 L 24.277555179777966,5.987513214418485 A 150.02510199280403 150.02510199280403 0 0 0 38.07177591354444,8.995903377511922 L 37.90490295313399,9.981881782490376 A 151.02510199280403 151.02510199280403 0 0 1 24.018736134675446,6.953439040707552 Z M 84.33510290187958,10.600126874347097 L 84.194542201686,9.610054811534951 A 150.02510199280403 150.02510199280403 0 0 0 98.06397496594202,6.970022269491109 L 97.36495062236274,4.052597897363606 L 104.9878025581694,5.825202863160699 L 98.99600742404773,10.859921432327779 L 98.29698308046845,7.942497060200276 A 151.02510199280403 151.02510199280403 0 0 1 84.33510290187958,10.600126874347097"/><text text-anchor="middle" pointer-events="none" font-size="8px" fill="#000000" x="61.102757284064865" y="14.5861519709959" transform="rotate(180 61.102757284064865 11.5861519709959)" font-family="sans-serif">twowheeler</text></g><g class="relationship" transform="translate(125.67504413368277 32.15624930346166) rotate(365.1280644529246)"><path class="outline" fill="#A5ABB6" stroke="none" d="M 25 0.5 L 58.82973782241106 0.5 L 58.82973782241106 -0.5 L 25 -0.5 Z M 78.16567532241106 0.5 L 111.99541314482212 0.5 L 111.99541314482212 3.5 L 118.99541314482212 0 L 111.99541314482212 -3.5 L 111.99541314482212 -0.5 L 78.16567532241106 -0.5 Z"/><text text-anchor="middle" pointer-events="none" font-size="8px" fill="#000000" x="68.49770657241106" y="3" font-family="sans-serif">trek</text></g><g class="relationship" transform="translate(22.0688801297494 -27.672668133723764) rotate(390.00492328834446)"><path class="outline" fill="#A5ABB6" stroke="none" d="M 25 0.5 L 45.314155213170004 0.5 L 45.314155213170004 -0.5 L 25 -0.5 Z M 67.32587396317001 0.5 L 87.64002917634001 0.5 L 87.64002917634001 3.5 L 94.64002917634001 0 L 87.64002917634001 -3.5 L 87.64002917634001 -0.5 L 67.32587396317001 -0.5 Z"/><text text-anchor="middle" pointer-events="none" font-size="8px" fill="#000000" x="56.320014588170004" y="3" font-family="sans-serif">road</text></g><g class="relationship" transform="translate(22.0688801297494 -27.672668133723764) rotate(390.00492328834446)"><path class="outline" fill="#A5ABB6" stroke="none" d="M 21.40063509461097,-12.933012701892217 L 21.90063509461097,-12.06698729810778 A 72.503754785373 72.503754785373 0 0 1 26.576756517668272,-14.543777369416247 L 26.141251403993813,-15.443963625678478 A 73.503754785373 73.503754785373 0 0 0 21.40063509461097,-12.933012701892217 Z M 86.43237518441052,-17.1226846144572 L 86.04763480237577,-16.199659783571406 A 72.503754785373 72.503754785373 0 0 1 90.85432995425096,-13.98690531516618 L 89.50122137813274,-11.30938833459718 L 97.32738767159832,-11.27590480098517 L 92.65847472240857,-17.556927955924845 L 91.30536614629035,-14.879410975355846 A 73.503754785373 73.503754785373 0 0 0 86.43237518441052,-17.1226846144572"/><text text-anchor="middle" pointer-events="none" font-size="8px" fill="#000000" x="56.12061376276915" y="-19.252366378343865" font-family="sans-serif">PublicTransport</text></g><g class="relationship" transform="translate(125.67504413368277 32.15624930346166) rotate(263.7979180035003)"><path class="outline" fill="#A5ABB6" stroke="none" d="M 25 0.5 L 43.65726861518998 0.5 L 43.65726861518998 -0.5 L 25 -0.5 Z M 62.99320611518998 0.5 L 81.65047473037995 0.5 L 81.65047473037995 3.5 L 88.65047473037995 0 L 81.65047473037995 -3.5 L 81.65047473037995 -0.5 L 62.99320611518998 -0.5 Z"/><text text-anchor="middle" pointer-events="none" font-size="8px" fill="#000000" x="53.32523736518998" y="3" transform="rotate(180 53.32523736518998 0)" font-family="sans-serif">trek</text></g><g class="relationship" transform="translate(27.629455240037263 116.45018598981542) rotate(458.43149517941504)"><path class="outline" fill="#A5ABB6" stroke="none" d="M 24.018736134675446,-6.953439040707552 L 24.277555179777966,-5.987513214418485 A 126.05216105333909 126.05216105333909 0 0 1 32.082828515015905,-7.815034980750255 L 31.885930449847514,-8.795458946151413 A 127.05216105333909 127.05216105333909 0 0 0 24.018736134675446,-6.953439040707552 Z M 78.2678217236872,-9.473296316411336 L 78.09965798361509,-8.48753724010264 A 126.05216105333909 126.05216105333909 0 0 1 85.95500235819665,-6.8888839315574835 L 85.26355652389977,-3.969654125900953 L 92.88177954377804,-5.762048619140812 L 86.87693013725918,-10.781190339099524 L 86.1854843029623,-7.8619605334429945 A 127.05216105333909 127.05216105333909 0 0 0 78.2678217236872,-9.473296316411336"/><text text-anchor="middle" pointer-events="none" font-size="8px" fill="#000000" x="55.05298546140758" y="-7.769124307282141" transform="rotate(180 55.05298546140758 -10.76912430728214)" font-family="sans-serif">twowheeler</text></g><g class="relationship" transform="translate(10.44351893904203 232.39207523250764) rotate(334.7552101592232)"><path class="outline" fill="#A5ABB6" stroke="none" d="M 21.40063509461097,12.933012701892217 L 21.90063509461097,12.06698729810778 A 58.73695131808098 58.73695131808098 0 0 0 27.13971282875456,14.751154349119965 L 26.728908430783207,15.66287785249552 A 59.73695131808098 59.73695131808098 0 0 1 21.40063509461097,12.933012701892217 Z M 72.37177804028049,17.084720841321314 L 72.01851817647753,16.149195604555402 A 58.73695131808098 58.73695131808098 0 0 0 77.41450704305927,13.796326629481678 L 76.07912638219616,11.109924111132502 L 83.9053430293512,11.12817217385928 L 79.19501459087675,17.378196653947246 L 77.85963393001364,14.691794135598071 A 59.73695131808098 59.73695131808098 0 0 1 72.37177804028049,17.084720841321314"/><text text-anchor="middle" pointer-events="none" font-size="8px" fill="#000000" x="49.42468669692429" y="23.407525329537414" font-family="sans-serif">twowheeler</text></g><g class="relationship" transform="translate(10.44351893904203 232.39207523250764) rotate(334.7552101592232)"><path class="outline" fill="#A5ABB6" stroke="none" d="M 25 0.5 L 38.640155966130514 0.5 L 38.640155966130514 -0.5 L 25 -0.5 Z M 60.651874716130514 0.5 L 74.29203068226103 0.5 L 74.29203068226103 3.5 L 81.29203068226103 0 L 74.29203068226103 -3.5 L 74.29203068226103 -0.5 L 60.651874716130514 -0.5 Z"/><text text-anchor="middle" pointer-events="none" font-size="8px" fill="#000000" x="49.646015341130514" y="3" font-family="sans-serif">road</text></g><g class="relationship" transform="translate(10.44351893904203 232.39207523250764) rotate(334.7552101592232)"><path class="outline" fill="#A5ABB6" stroke="none" d="M 21.40063509461097,-12.933012701892217 L 21.90063509461097,-12.06698729810778 A 58.73695131808098 58.73695131808098 0 0 1 39.92532330729441,-18.83043218220635 L 39.732194668647054,-19.81160562708459 A 59.73695131808098 59.73695131808098 0 0 0 21.40063509461097,-12.933012701892217 Z M 59.1354770559913,-20.41604661115698 L 59.00379363176609,-19.42475478944941 A 58.73695131808098 58.73695131808098 0 0 1 77.41450704305927,-13.796326629481678 L 76.07912638219616,-11.109924111132502 L 83.9053430293512,-11.12817217385928 L 79.19501459087675,-17.378196653947246 L 77.85963393001364,-14.691794135598071 A 59.73695131808098 59.73695131808098 0 0 0 59.1354770559913,-20.41604661115698"/><text text-anchor="middle" pointer-events="none" font-size="8px" fill="#000000" x="49.42468669692429" y="-17.407525329537414" font-family="sans-serif">trek</text></g><g class="relationship" transform="translate(27.629455240037263 116.45018598981542) rotate(458.43149517941504)"><path class="outline" fill="#A5ABB6" stroke="none" d="M 24.018736134675446,6.953439040707552 L 24.277555179777966,5.987513214418485 A 126.05216105333909 126.05216105333909 0 0 0 45.44628441820676,9.760981809673297 L 45.355401639024116,10.756843406707773 A 127.05216105333909 127.05216105333909 0 0 1 24.018736134675446,6.953439040707552 Z M 64.74678668622794,11.04023429666718 L 64.68504408000636,10.04214219140988 A 126.05216105333909 126.05216105333909 0 0 0 85.95500235819665,6.8888839315574835 L 85.26355652389977,3.969654125900953 L 92.88177954377804,5.762048619140812 L 86.87693013725918,10.781190339099524 L 86.1854843029623,7.8619605334429945 A 127.05216105333909 127.05216105333909 0 0 1 64.74678668622794,11.04023429666718"/><text text-anchor="middle" pointer-events="none" font-size="8px" fill="#000000" x="55.052985461407594" y="13.76912430728214" transform="rotate(180 55.052985461407594 10.76912430728214)" font-family="sans-serif">trek</text></g><g class="relationship" transform="translate(10.44351893904203 232.39207523250764) rotate(374.1555770346655)"><path class="outline" fill="#A5ABB6" stroke="none" d="M 25 0.5 L 50.49289061777393 0.5 L 50.49289061777393 -0.5 L 25 -0.5 Z M 69.82882811777392 0.5 L 95.32171873554786 0.5 L 95.32171873554786 3.5 L 102.32171873554786 0 L 95.32171873554786 -3.5 L 95.32171873554786 -0.5 L 69.82882811777392 -0.5 Z"/><text text-anchor="middle" pointer-events="none" font-size="8px" fill="#000000" x="60.16085936777393" y="3" font-family="sans-serif">trek</text></g><g class="relationship" transform="translate(133.89914576204322 263.5293241076705) rotate(312.8717846712703)"><path class="outline" fill="#A5ABB6" stroke="none" d="M 25 0.5 L 51.675373705026786 0.5 L 51.675373705026786 -0.5 L 25 -0.5 Z M 71.01131120502679 0.5 L 97.68668491005357 0.5 L 97.68668491005357 3.5 L 104.68668491005357 0 L 97.68668491005357 -3.5 L 97.68668491005357 -0.5 L 71.01131120502679 -0.5 Z"/><text text-anchor="middle" pointer-events="none" font-size="8px" fill="#000000" x="61.343342455026786" y="3" font-family="sans-serif">trek</text></g></g><g class="layer nodes"><g class="node" transform="translate(22.0688801297494,-27.672668133723764)"><circle class="outline" cx="0" cy="0" r="25" fill="#ECB5C9" stroke="#da7298" stroke-width="2px"/><text text-anchor="middle" pointer-events="none" font-family="sans-serif" dy="1.5625" font-size="25" fill="#2A2C34"/><text text-anchor="middle" pointer-events="none" x="0" y="5" font-size="10px" fill="#2A2C34" font-family="sans-serif"> Darjeeling</text></g><g class="node" transform="translate(222.13278459527598,168.48480179730188)"><circle class="outline" cx="0" cy="0" r="25" fill="#4C8EDA" stroke="#2870c2" stroke-width="2px"/><text text-anchor="middle" pointer-events="none" font-family="sans-serif" dy="1.5625" font-size="25" fill="#FFFFFF"/><text text-anchor="middle" pointer-events="none" x="0" y="5" font-size="10px" fill="#FFFFFF" font-family="sans-serif"> Sandak…</text></g><g class="node" transform="translate(113.39676045438281,-80.82903361573703)"><circle class="outline" cx="0" cy="0" r="25" fill="#8DCC93" stroke="#5db665" stroke-width="2px"/><text text-anchor="middle" pointer-events="none" font-family="sans-serif" dy="1.5625" font-size="25" fill="#2A2C34"/><text text-anchor="middle" pointer-events="none" x="0" y="5" font-size="10px" fill="#2A2C34" font-family="sans-serif"> Tumbling</text></g><g class="node" transform="translate(227.0517319975357,-62.03518649945423)"><circle class="outline" cx="0" cy="0" r="25" fill="#8DCC93" stroke="#5db665" stroke-width="2px"/><text text-anchor="middle" pointer-events="none" font-family="sans-serif" dy="1.5625" font-size="25" fill="#2A2C34"/><text text-anchor="middle" pointer-events="none" x="0" y="5" font-size="10px" fill="#2A2C34" font-family="sans-serif"> Gairibus</text></g><g class="node" transform="translate(269.0941018109203,45.026870955939714)"><circle class="outline" cx="0" cy="0" r="25" fill="#8DCC93" stroke="#5db665" stroke-width="2px"/><text text-anchor="middle" pointer-events="none" font-family="sans-serif" dy="1.5625" font-size="25" fill="#2A2C34"/><text text-anchor="middle" pointer-events="none" x="0" y="5" font-size="10px" fill="#2A2C34" font-family="sans-serif"> BhikeBh…</text></g><g class="node" transform="translate(125.67504413368277,32.15624930346166)"><circle class="outline" cx="0" cy="0" r="25" fill="#ECB5C9" stroke="#da7298" stroke-width="2px"/><text text-anchor="middle" pointer-events="none" font-family="sans-serif" dy="1.5625" font-size="25" fill="#2A2C34"/><text text-anchor="middle" pointer-events="none" x="0" y="5" font-size="10px" fill="#2A2C34" font-family="sans-serif"> Rimbik</text></g><g class="node" transform="translate(27.629455240037263,116.45018598981542)"><circle class="outline" cx="0" cy="0" r="25" fill="#8DCC93" stroke="#5db665" stroke-width="2px"/><text text-anchor="middle" pointer-events="none" font-family="sans-serif" dy="1.5625" font-size="25" fill="#2A2C34"/><text text-anchor="middle" pointer-events="none" x="0" y="5" font-size="10px" fill="#2A2C34" font-family="sans-serif"> Sirikhola</text></g><g class="node" transform="translate(106.58401565809827,187.05995993692653)"><circle class="outline" cx="0" cy="0" r="25" fill="#8DCC93" stroke="#5db665" stroke-width="2px"/><text text-anchor="middle" pointer-events="none" font-family="sans-serif" dy="1.5625" font-size="25" fill="#2A2C34"/><text text-anchor="middle" pointer-events="none" x="0" y="5" font-size="10px" fill="#2A2C34" font-family="sans-serif"> Gurdum</text></g><g class="node" transform="translate(10.44351893904203,232.39207523250764)"><circle class="outline" cx="0" cy="0" r="25" fill="#8DCC93" stroke="#5db665" stroke-width="2px"/><text text-anchor="middle" pointer-events="none" font-family="sans-serif" dy="1.5625" font-size="25" fill="#2A2C34"/><text text-anchor="middle" pointer-events="none" x="0" y="5" font-size="10px" fill="#2A2C34" font-family="sans-serif"> Rammam</text></g><g class="node" transform="translate(133.89914576204322,263.5293241076705)"><circle class="outline" cx="0" cy="0" r="25" fill="#4C8EDA" stroke="#2870c2" stroke-width="2px"/><text text-anchor="middle" pointer-events="none" font-family="sans-serif" dy="1.5625" font-size="25" fill="#FFFFFF"/><text text-anchor="middle" pointer-events="none" x="0" y="5" font-size="10px" fill="#FFFFFF" font-family="sans-serif"> Sabargr…</text></g></g></svg>