<svg xmlns="http://www.w3.org/2000/svg" width="163.65835571289062" height="243.31298828125" viewBox="-1.3873615264892578 -20.67768096923828 163.65835571289062 243.31298828125"><title>Neo4j Graph Visualization</title><desc>Created using Neo4j (http://www.neo4j.com/)</desc><g class="layer relationships"><g class="relationship" transform="translate(133.2709927670397 8.322318178036037) rotate(522.0070147834512)"><path class="outline" fill="#A5ABB6" stroke="none" d="M 21.40063509461097,12.933012701892217 L 21.90063509461097,12.06698729810778 A 59.940915584465685 59.940915584465685 0 0 0 40.504818834186146,19.01001879388533 L 40.31519420229942,19.99187545296639 A 60.940915584465685 60.940915584465685 0 0 1 21.40063509461097,12.933012701892217 Z M 59.71883658021995,20.590133239117783 L 59.59006031195895,19.5984595666162 A 59.940915584465685 59.940915584465685 0 0 0 78.58663819462852,13.81474383061206 L 77.24954423899123,11.129193653497838 L 85.07577093383459,11.142449630310752 L 80.36943013547824,17.395477400097686 L 79.03233617984095,14.709927222983467 A 60.940915584465685 60.940915584465685 0 0 1 59.71883658021995,20.590133239117783"/><text text-anchor="middle" pointer-events="none" font-size="8px" fill="#000000" x="50.008449115648204" y="23.568839340125727" transform="rotate(180 50.008449115648204 20.568839340125727)" font-family="sans-serif">trek</text></g><g class="relationship" transform="translate(31.07081185405351 41.51533701081642) rotate(451.85781055114114)"><path class="outline" fill="#A5ABB6" stroke="none" d="M 25 0.5 L 40.16725729834456 0.5 L 40.16725729834456 -0.5 L 25 -0.5 Z M 59.50319479834456 0.5 L 74.67045209668912 0.5 L 74.67045209668912 3.5 L 81.67045209668912 0 L 74.67045209668912 -3.5 L 74.67045209668912 -0.5 L 59.50319479834456 -0.5 Z"/><text text-anchor="middle" pointer-events="none" font-size="8px" fill="#000000" x="49.83522604834456" y="3" transform="rotate(180 49.83522604834456 0)" font-family="sans-serif">trek</text></g><g class="relationship" transform="translate(27.612637986124472 148.12971870489753) rotate(385.08346195654553)"><path class="outline" fill="#A5ABB6" stroke="none" d="M 25 0.5 L 40.502118555020196 0.5 L 40.502118555020196 -0.5 L 25 -0.5 Z M 59.838056055020196 0.5 L 75.34017461004039 0.5 L 75.34017461004039 3.5 L 82.34017461004039 0 L 75.34017461004039 -3.5 L 75.34017461004039 -0.5 L 59.838056055020196 -0.5 Z"/><text text-anchor="middle" pointer-events="none" font-size="8px" fill="#000000" x="50.170087305020196" y="3" font-family="sans-serif">trek</text></g><g class="relationship" transform="translate(133.2709927670397 8.322318178036037) rotate(522.0070147834512)"><path class="outline" fill="#A5ABB6" stroke="none" d="M 25 0.5 L 39.22181849655988 0.5 L 39.22181849655988 -0.5 L 25 -0.5 Z M 61.23353724655988 0.5 L 75.45535574311975 0.5 L 75.45535574311975 3.5 L 82.45535574311975 0 L 75.45535574311975 -3.5 L 75.45535574311975 -0.5 L 61.23353724655988 -0.5 Z"/><text text-anchor="middle" pointer-events="none" font-size="8px" fill="#000000" x="50.22767787155988" y="3" transform="rotate(180 50.22767787155988 0)" font-family="sans-serif">road</text></g><g class="relationship" transform="translate(133.2709927670397 8.322318178036037) rotate(522.0070147834512)"><path class="outline" fill="#A5ABB6" stroke="none" d="M 21.40063509461097,-12.933012701892217 L 21.90063509461097,-12.06698729810778 A 59.940915584465685 59.940915584465685 0 0 1 23.471128067857883,-12.942570706861495 L 22.997328751613438,-13.82320355199407 A 60.940915584465685 60.940915584465685 0 0 0 21.40063509461097,-12.933012701892217 Z M 77.38383433526815,-15.500061421937687 L 76.9651871718027,-14.59191245149158 A 59.940915584465685 59.940915584465685 0 0 1 78.58663819462852,-13.81474383061206 L 77.24954423899123,-11.129193653497838 L 85.07577093383459,-11.142449630310752 L 80.36943013547824,-17.395477400097686 L 79.03233617984095,-14.709927222983467 A 60.940915584465685 60.940915584465685 0 0 0 77.38383433526815,-15.500061421937687"/><text text-anchor="middle" pointer-events="none" font-size="8px" fill="#000000" x="50.008449115648204" y="-17.568839340125727" transform="rotate(180 50.008449115648204 -20.568839340125727)" font-family="sans-serif">PublicTrans…</text></g></g><g class="layer nodes"><g class="node" transform="translate(133.2709927670397,8.322318178036037)"><circle class="outline" cx="0" cy="0" r="25" fill="#ECB5C9" stroke="#da7298" stroke-width="2px"/><text text-anchor="middle" pointer-events="none" font-family="sans-serif" dy="1.5625" font-size="25" fill="#2A2C34"/><text text-anchor="middle" pointer-events="none" x="0" y="5" font-size="10px" fill="#2A2C34" font-family="sans-serif"> Darjeeling</text></g><g class="node" transform="translate(124.82968992453445,193.63529965623204)"><circle class="outline" cx="0" cy="0" r="25" fill="#4C8EDA" stroke="#2870c2" stroke-width="2px"/><text text-anchor="middle" pointer-events="none" font-family="sans-serif" dy="1.5625" font-size="25" fill="#FFFFFF"/><text text-anchor="middle" pointer-events="none" x="0" y="5" font-size="10px" fill="#FFFFFF" font-family="sans-serif"> Sandak…</text></g><g class="node" transform="translate(31.07081185405351,41.51533701081642)"><circle class="outline" cx="0" cy="0" r="25" fill="#ECB5C9" stroke="#da7298" stroke-width="2px"/><text text-anchor="middle" pointer-events="none" font-family="sans-serif" dy="1.5625" font-size="25" fill="#2A2C34"/><text text-anchor="middle" pointer-events="none" x="0" y="5" font-size="10px" fill="#2A2C34" font-family="sans-serif"> Rimbik</text></g><g class="node" transform="translate(27.612637986124472,148.12971870489753)"><circle class="outline" cx="0" cy="0" r="25" fill="#8DCC93" stroke="#5db665" stroke-width="2px"/><text text-anchor="middle" pointer-events="none" font-family="sans-serif" dy="1.5625" font-size="25" fill="#2A2C34"/><text text-anchor="middle" pointer-events="none" x="0" y="5" font-size="10px" fill="#2A2C34" font-family="sans-serif"> BhikeBh…</text></g></g></svg>