<svg xmlns="http://www.w3.org/2000/svg" width="339.3942565917969" height="215.681396484375" viewBox="-267.979248046875 -57.19908905029297 339.3942565917969 215.681396484375"><title>Neo4j Graph Visualization</title><desc>Created using Neo4j (http://www.neo4j.com/)</desc><g class="layer relationships"><g class="relationship" transform="translate(42.415015619725345 88.31818072626382) rotate(191.46744209509683)"><path class="outline" fill="#A5ABB6" stroke="none" d="M 5.987513214418485,24.277555179777966 L 6.953439040707552,24.018736134675446 A 53.17194461636421 53.17194461636421 0 0 0 38.28960184611565,59.51426475083071 L 37.91301242705221,60.4406450234237 A 54.17194461636421 54.17194461636421 0 0 1 5.987513214418485,24.277555179777966 Z M 73.03258656567013,62.39079421275493 L 72.7608777855951,61.42841469363052 A 53.17194461636421 53.17194461636421 0 0 0 107.83432076967479,29.620534406666323 L 105.04032512701203,28.528019716247247 L 110.84918765442976,23.283297022189714 L 111.55964829322515,31.07722066055842 L 108.76565265056239,29.984705970139345 A 54.17194461636421 54.17194461636421 0 0 1 73.03258656567013,62.39079421275493"/><text text-anchor="middle" pointer-events="none" font-size="8px" fill="#000000" x="55.337837061134444" y="66.8462122572185" transform="rotate(180 55.337837061134444 63.8462122572185)" font-family="sans-serif">FLY_TO</text></g><g class="relationship" transform="translate(42.415015619725345 88.31818072626382) rotate(191.46744209509683)"><path class="outline" fill="#A5ABB6" stroke="none" d="M 17.324116139070416,18.03122292025696 L 18.031222920256962,17.324116139070412 A 56.967874911075796 56.967874911075796 0 0 0 38.86464372932087,30.586839761049937 L 38.52324166928784,31.526757115611076 A 57.967874911075796 57.967874911075796 0 0 1 17.324116139070416,18.03122292025696 Z M 73.73031915594851,32.921966436738444 L 73.46436623633687,31.957980417882332 A 56.967874911075796 56.967874911075796 0 0 0 95.281974502127,20.385459947341893 L 93.33517302953386,18.102925385432872 L 100.93235539201358,16.22334560494275 L 97.87770979891785,23.428839363220586 L 95.93090832632471,21.146304801311565 A 57.967874911075796 57.967874911075796 0 0 1 73.73031915594851,32.921966436738444"/><text text-anchor="middle" pointer-events="none" font-size="8px" fill="#000000" x="56.03800480111876" y="37.46454881166569" transform="rotate(180 56.03800480111876 34.46454881166569)" font-family="sans-serif">FLY_TO</text></g><g class="relationship" transform="translate(42.415015619725345 88.31818072626382) rotate(191.46744209509683)"><path class="outline" fill="#A5ABB6" stroke="none" d="M 24.018736134675446,6.953439040707552 L 24.277555179777966,5.987513214418485 A 131.505154060072 131.505154060072 0 0 0 38.826654446040834,9.016603637189007 L 38.67847060280741,10.005563468832634 A 132.505154060072 132.505154060072 0 0 1 24.018736134675446,6.953439040707552 Z M 74.1942482037029,10.51335764538294 L 74.0743988685077,9.520565553929117 A 131.505154060072 131.505154060072 0 0 0 88.7041513586435,6.908665799678612 L 88.01085782206252,3.9898742565678265 L 95.63021388199883,5.777446138174799 L 89.62854274075147,10.80038785715966 L 88.93524920417049,7.881596314048874 A 132.505154060072 132.505154060072 0 0 1 74.1942482037029,10.51335764538294"/><text text-anchor="middle" pointer-events="none" font-size="8px" fill="#000000" x="56.42641546752466" y="13.954952207447462" transform="rotate(180 56.42641546752466 10.954952207447462)" font-family="sans-serif">FLY_TO</text></g><g class="relationship" transform="translate(-75.14393011850781 64.47010199379464) rotate(191.46747006069978)"><path class="outline" fill="#A5ABB6" stroke="none" d="M 5.987513214418485,-24.277555179777966 L 6.953439040707552,-24.018736134675446 A 78.10063662421472 78.10063662421472 0 0 1 61.879803517048735,-79.16343923704203 L 61.617154473772615,-80.12833067138381 A 79.10063662421472 79.10063662421472 0 0 0 5.987513214418485,-24.277555179777966 Z M 97.0041227616657,-81.54425174172589 L 96.81940538921995,-80.56146005865325 A 78.10063662421472 78.10063662421472 0 0 1 155.97607777640619,-29.981504474341666 L 153.14960081214772,-28.97600560784986 L 158.79332129226347,-23.5539747021539 L 159.74471372875078,-31.32216962966407 L 156.91823676449232,-30.316670763172265 A 79.10063662421472 79.10063662421472 0 0 0 97.0041227616657,-81.54425174172589"/><text text-anchor="middle" pointer-events="none" font-size="8px" fill="#000000" x="79.25036758908279" y="-79.34259620032039" transform="rotate(180 79.25036758908279 -82.34259620032039)" font-family="sans-serif">FLY_TO</text></g><g class="relationship" transform="translate(-75.14393011850781 64.47010199379464) rotate(371.4674420950968)"><path class="outline" fill="#A5ABB6" stroke="none" d="M 24.018736134675446,6.953439040707552 L 24.277555179777966,5.987513214418485 A 131.505154060072 131.505154060072 0 0 0 38.826654446040834,9.016603637189007 L 38.67847060280741,10.005563468832634 A 132.505154060072 132.505154060072 0 0 1 24.018736134675446,6.953439040707552 Z M 74.1942482037029,10.51335764538294 L 74.0743988685077,9.520565553929117 A 131.505154060072 131.505154060072 0 0 0 88.7041513586435,6.908665799678612 L 88.01085782206252,3.9898742565678265 L 95.63021388199883,5.777446138174799 L 89.62854274075147,10.80038785715966 L 88.93524920417049,7.881596314048874 A 132.505154060072 132.505154060072 0 0 1 74.1942482037029,10.51335764538294"/><text text-anchor="middle" pointer-events="none" font-size="8px" fill="#000000" x="56.42641546752466" y="13.954952207447462" font-family="sans-serif">FLY_TO</text></g><g class="relationship" transform="translate(-75.14393011850781 64.47010199379464) rotate(371.4674420950968)"><path class="outline" fill="#A5ABB6" stroke="none" d="M 17.324116139070416,18.03122292025696 L 18.031222920256962,17.324116139070412 A 56.967874911075796 56.967874911075796 0 0 0 38.86464372932087,30.586839761049937 L 38.52324166928784,31.526757115611076 A 57.967874911075796 57.967874911075796 0 0 1 17.324116139070416,18.03122292025696 Z M 73.73031915594851,32.921966436738444 L 73.46436623633687,31.957980417882332 A 56.967874911075796 56.967874911075796 0 0 0 95.281974502127,20.385459947341893 L 93.33517302953386,18.102925385432872 L 100.93235539201358,16.22334560494275 L 97.87770979891785,23.428839363220586 L 95.93090832632471,21.146304801311565 A 57.967874911075796 57.967874911075796 0 0 1 73.73031915594851,32.921966436738444"/><text text-anchor="middle" pointer-events="none" font-size="8px" fill="#000000" x="56.03800480111876" y="37.46454881166569" font-family="sans-serif">FLY_TO</text></g><g class="relationship" transform="translate(-75.14393011850781 64.47010199379464) rotate(191.46747006069978)"><path class="outline" fill="#A5ABB6" stroke="none" d="M 10.396609043987748,-22.74116356711926 L 11.29757791189017,-22.307279828001697 A 78.90981101187532 78.90981101187532 0 0 1 62.06772559901569,-64.31687228270434 L 61.8101513487925,-65.28313079139753 A 79.90981101187532 79.90981101187532 0 0 0 10.396609043987748,-22.74116356711926 Z M 97.20498689428767,-66.59461633358349 L 97.01962635218311,-65.61194575326132 A 78.90981101187532 78.90981101187532 0 0 1 150.75945406975447,-27.474763486233908 L 148.1602870389091,-25.97665442953393 L 154.688236373862,-21.659725257044727 L 154.22501011088164,-29.472242228500548 L 151.62584308003628,-27.97413317180057 A 79.90981101187532 79.90981101187532 0 0 0 97.20498689428767,-66.59461633358349"/><text text-anchor="middle" pointer-events="none" font-size="8px" fill="#000000" x="79.45250545951421" y="-64.42495114340674" transform="rotate(180 79.45250545951421 -67.42495114340674)" font-family="sans-serif">FLY_TO</text></g><g class="relationship" transform="translate(-75.14393011850781 64.47010199379464) rotate(191.46747006069978)"><path class="outline" fill="#A5ABB6" stroke="none" d="M 14.44320574945421,-20.411854586953456 L 15.247803529220876,-19.818034401379958 A 83.45170613807095 83.45170613807095 0 0 1 62.21215669986245,-51.23757738459654 L 61.9703317541579,-52.20789727805178 A 84.45170613807095 84.45170613807095 0 0 0 14.44320574945421,-20.411854586953456 Z M 97.38947128761441,-53.3722469869217 L 97.21189512050367,-52.38813992726087 A 83.45170613807095 83.45170613807095 0 0 1 146.13836074591853,-24.120860054304693 L 143.84677788835066,-22.18471749578763 L 151.037957192053,-19.096523813065794 L 149.19380455600904,-26.702383465660773 L 146.90222169844117,-24.76624090714371 A 84.45170613807095 84.45170613807095 0 0 0 97.38947128761441,-53.3722469869217"/><text text-anchor="middle" pointer-events="none" font-size="8px" fill="#000000" x="79.63456784425466" y="-51.16910783451312" transform="rotate(180 79.63456784425466 -54.16910783451312)" font-family="sans-serif">FLY_TO</text></g><g class="relationship" transform="translate(-75.14393011850781 64.47010199379464) rotate(191.46747006069978)"><path class="outline" fill="#A5ABB6" stroke="none" d="M 17.9862104268602,-17.370844380187897 L 18.666383164631117,-16.637792508358068 A 93.69160847267746 93.69160847267746 0 0 1 62.30974607810293,-39.470840378738615 L 62.095392677035996,-40.44759655069302 A 94.69160847267746 94.69160847267746 0 0 0 17.9862104268602,-17.370844380187897 Z M 97.55173749809994,-41.427348785552894 L 97.39165069910106,-40.44024584422088 A 93.69160847267746 93.69160847267746 0 0 1 142.2293273627452,-20.052162244858426 L 140.3133670969587,-17.743678703672288 L 147.9351156698106,-15.966335548220936 L 144.78394105046056,-23.13014029977328 L 142.86798078467405,-20.821656758587142 A 94.69160847267746 94.69160847267746 0 0 0 97.55173749809994,-41.427348785552894"/><text text-anchor="middle" pointer-events="none" font-size="8px" fill="#000000" x="79.79109178589043" y="-39.11265200509271" transform="rotate(180 79.79109178589043 -42.11265200509271)" font-family="sans-serif">FLY_TO</text></g><g class="relationship" transform="translate(-75.14393011850781 64.47010199379464) rotate(191.46747006069978)"><path class="outline" fill="#A5ABB6" stroke="none" d="M 20.90208894244944,-13.724164012497553 L 21.434121018964774,-12.87743981326927 A 114.57718937916547 114.57718937916547 0 0 1 62.36258827710659,-28.674928339565312 L 62.187769250413055,-29.659528922495227 A 115.57718937916547 115.57718937916547 0 0 0 20.90208894244944,-13.724164012497553 Z M 97.68483678949212,-30.423245821061002 L 97.55252715412219,-29.43203738667988 A 114.57718937916547 114.57718937916547 0 0 1 139.12257019436026,-15.4094984770532 L 137.63720361757225,-12.803028424940363 L 145.45189474542155,-12.37805480656667 L 141.10305896341094,-18.884791879870317 L 139.61769238662293,-16.27832182775748 A 115.57718937916547 115.57718937916547 0 0 0 97.68483678949212,-30.423245821061002"/><text text-anchor="middle" pointer-events="none" font-size="8px" fill="#000000" x="79.9175562451064" y="-27.91272534283084" transform="rotate(180 79.9175562451064 -30.91272534283084)" font-family="sans-serif">FLY_TO</text></g><g class="relationship" transform="translate(-75.14393011850781 64.47010199379464) rotate(191.46747006069978)"><path class="outline" fill="#A5ABB6" stroke="none" d="M 23.08917320392191,-9.598962483481976 L 23.454514228288303,-8.668088734837774 A 161.32419533114472 161.32419533114472 0 0 1 62.37814022348178,-18.573445580025663 L 62.25407500969851,-19.56571964636464 A 162.32419533114472 162.32419533114472 0 0 0 23.08917320392191,-9.598962483481976 Z M 97.78075984257183,-20.088813797326083 L 97.68596252165779,-19.093317203686752 A 161.32419533114472 161.32419533114472 0 0 1 136.8843445397617,-10.338227140929009 L 135.87101575627224,-7.514547843177269 L 143.64181769843069,-8.444406529078881 L 138.2354495844143,-14.103132871264663 L 137.22212080092484,-11.279453573512923 A 162.32419533114472 162.32419533114472 0 0 0 97.78075984257183,-20.088813797326083"/><text text-anchor="middle" pointer-events="none" font-size="8px" fill="#000000" x="80.01042323649553" y="-17.302287080097017" transform="rotate(180 80.01042323649553 -20.302287080097017)" font-family="sans-serif">FLY_TO</text></g><g class="relationship" transform="translate(-75.14393011850781 64.47010199379464) rotate(191.46747006069978)"><path class="outline" fill="#A5ABB6" stroke="none" d="M 24.471206027250748,-5.139073415689509 L 24.657117634413662,-4.15650694245622 A 310.5548074824912 310.5548074824912 0 0 1 62.36721124822547,-8.92423827509208 L 62.302727784196165,-9.922157050778196 A 311.5548074824912 311.5548074824912 0 0 0 24.471206027250748,-5.139073415689509 Z M 97.83169202907791,-10.187808357887207 L 97.78213788755085,-9.189036919039722 A 310.5548074824912 310.5548074824912 0 0 1 135.5593082940266,-4.9857264971531405 L 135.045713469467,-2.0300167082554617 L 142.5415636055478,-4.2799568713302785 L 136.24410139343945,-8.926672882350045 L 135.73050656887983,-5.970963093452366 A 311.5548074824912 311.5548074824912 0 0 0 97.83169202907791,-10.187808357887207"/><text text-anchor="middle" pointer-events="none" font-size="8px" fill="#000000" x="80.06715835077328" y="-7.061877932743641" transform="rotate(180 80.06715835077328 -10.061877932743641)" font-family="sans-serif">FLY_TO</text></g><g class="relationship" transform="translate(-75.14393011850781 64.47010199379464) rotate(191.46747006069978)"><path class="outline" fill="#A5ABB6" stroke="none" d="M 25 0.5 L 62.34014550651426 0.5 L 62.34014550651426 -0.5 L 25 -0.5 Z M 97.83233300651426 0.5 L 135.17247851302852 0.5 L 135.17247851302852 3.5 L 142.17247851302852 0 L 135.17247851302852 -3.5 L 135.17247851302852 -0.5 L 97.83233300651426 -0.5 Z"/><text text-anchor="middle" pointer-events="none" font-size="8px" fill="#000000" x="80.08623925651426" y="3" transform="rotate(180 80.08623925651426 0)" font-family="sans-serif">FLY_TO</text></g><g class="relationship" transform="translate(-75.14393011850781 64.47010199379464) rotate(191.46747006069978)"><path class="outline" fill="#A5ABB6" stroke="none" d="M 24.471206027250748,5.139073415689509 L 24.657117634413662,4.15650694245622 A 310.5548074824912 310.5548074824912 0 0 0 62.3672112482255,8.92423827509208 L 62.30272778419619,9.922157050778196 A 311.5548074824912 311.5548074824912 0 0 1 24.471206027250748,5.139073415689509 Z M 97.83169202907793,10.187808357887207 L 97.78213788755086,9.189036919039722 A 310.5548074824912 310.5548074824912 0 0 0 135.5593082940266,4.9857264971531405 L 135.045713469467,2.0300167082554617 L 142.5415636055478,4.2799568713302785 L 136.24410139343945,8.926672882350045 L 135.73050656887983,5.970963093452366 A 311.5548074824912 311.5548074824912 0 0 1 97.83169202907793,10.187808357887207"/><text text-anchor="middle" pointer-events="none" font-size="8px" fill="#000000" x="80.0671583507733" y="13.061877932743641" transform="rotate(180 80.0671583507733 10.061877932743641)" font-family="sans-serif">FLY_TO</text></g><g class="relationship" transform="translate(-75.14393011850781 64.47010199379464) rotate(191.46747006069978)"><path class="outline" fill="#A5ABB6" stroke="none" d="M 23.08917320392191,9.598962483481976 L 23.454514228288303,8.668088734837774 A 161.32419533114472 161.32419533114472 0 0 0 62.378140223481765,18.573445580025663 L 62.2540750096985,19.56571964636464 A 162.32419533114472 162.32419533114472 0 0 1 23.08917320392191,9.598962483481976 Z M 97.7807598425718,20.088813797326083 L 97.68596252165777,19.093317203686752 A 161.32419533114472 161.32419533114472 0 0 0 136.8843445397617,10.338227140929009 L 135.87101575627224,7.514547843177269 L 143.64181769843069,8.444406529078881 L 138.2354495844143,14.103132871264663 L 137.22212080092484,11.279453573512923 A 162.32419533114472 162.32419533114472 0 0 1 97.7807598425718,20.088813797326083"/><text text-anchor="middle" pointer-events="none" font-size="8px" fill="#000000" x="80.0104232364955" y="23.302287080097017" transform="rotate(180 80.0104232364955 20.302287080097017)" font-family="sans-serif">FLY_TO</text></g><g class="relationship" transform="translate(-75.14393011850781 64.47010199379464) rotate(191.46747006069978)"><path class="outline" fill="#A5ABB6" stroke="none" d="M 20.90208894244944,13.724164012497553 L 21.434121018964774,12.87743981326927 A 114.57718937916547 114.57718937916547 0 0 0 62.362588277106596,28.674928339565326 L 62.187769250413055,29.65952892249524 A 115.57718937916547 115.57718937916547 0 0 1 20.90208894244944,13.724164012497553 Z M 97.6848367894921,30.423245821061002 L 97.55252715412216,29.43203738667988 A 114.57718937916547 114.57718937916547 0 0 0 139.12257019436026,15.4094984770532 L 137.63720361757225,12.803028424940363 L 145.45189474542155,12.37805480656667 L 141.10305896341094,18.884791879870317 L 139.61769238662293,16.27832182775748 A 115.57718937916547 115.57718937916547 0 0 1 97.6848367894921,30.423245821061002"/><text text-anchor="middle" pointer-events="none" font-size="8px" fill="#000000" x="79.91755624510638" y="33.91272534283084" transform="rotate(180 79.91755624510638 30.91272534283084)" font-family="sans-serif">FLY_TO</text></g><g class="relationship" transform="translate(-75.14393011850781 64.47010199379464) rotate(191.46747006069978)"><path class="outline" fill="#A5ABB6" stroke="none" d="M 17.9862104268602,17.370844380187897 L 18.666383164631117,16.637792508358068 A 93.69160847267746 93.69160847267746 0 0 0 62.30974607810295,39.470840378738615 L 62.09539267703601,40.44759655069302 A 94.69160847267746 94.69160847267746 0 0 1 17.9862104268602,17.370844380187897 Z M 97.55173749809995,41.42734878555288 L 97.39165069910106,40.44024584422088 A 93.69160847267746 93.69160847267746 0 0 0 142.2293273627452,20.052162244858426 L 140.3133670969587,17.743678703672288 L 147.9351156698106,15.966335548220936 L 144.78394105046056,23.13014029977328 L 142.86798078467405,20.821656758587142 A 94.69160847267746 94.69160847267746 0 0 1 97.55173749809995,41.42734878555288"/><text text-anchor="middle" pointer-events="none" font-size="8px" fill="#000000" x="79.79109178589044" y="45.11265200509271" transform="rotate(180 79.79109178589044 42.11265200509271)" font-family="sans-serif">FLY_TO</text></g><g class="relationship" transform="translate(-75.14393011850781 64.47010199379464) rotate(191.46747006069978)"><path class="outline" fill="#A5ABB6" stroke="none" d="M 14.44320574945421,20.411854586953456 L 15.247803529220876,19.818034401379958 A 83.45170613807095 83.45170613807095 0 0 0 62.21215669986244,51.23757738459654 L 61.9703317541579,52.20789727805178 A 84.45170613807095 84.45170613807095 0 0 1 14.44320574945421,20.411854586953456 Z M 97.38947128761443,53.37224698692169 L 97.21189512050368,52.38813992726087 A 83.45170613807095 83.45170613807095 0 0 0 146.13836074591853,24.120860054304693 L 143.84677788835066,22.18471749578763 L 151.037957192053,19.096523813065794 L 149.19380455600904,26.702383465660773 L 146.90222169844117,24.76624090714371 A 84.45170613807095 84.45170613807095 0 0 1 97.38947128761443,53.37224698692169"/><text text-anchor="middle" pointer-events="none" font-size="8px" fill="#000000" x="79.63456784425466" y="57.16910783451312" transform="rotate(180 79.63456784425466 54.16910783451312)" font-family="sans-serif">FLY_TO</text></g><g class="relationship" transform="translate(-75.14393011850781 64.47010199379464) rotate(191.46747006069978)"><path class="outline" fill="#A5ABB6" stroke="none" d="M 10.396609043987748,22.74116356711926 L 11.29757791189017,22.307279828001697 A 78.90981101187532 78.90981101187532 0 0 0 62.06772559901571,64.31687228270435 L 61.810151348792516,65.28313079139753 A 79.90981101187532 79.90981101187532 0 0 1 10.396609043987748,22.74116356711926 Z M 97.20498689428767,66.59461633358349 L 97.01962635218311,65.61194575326132 A 78.90981101187532 78.90981101187532 0 0 0 150.75945406975447,27.474763486233908 L 148.1602870389091,25.97665442953393 L 154.688236373862,21.659725257044727 L 154.22501011088164,29.472242228500548 L 151.62584308003628,27.97413317180057 A 79.90981101187532 79.90981101187532 0 0 1 97.20498689428767,66.59461633358349"/><text text-anchor="middle" pointer-events="none" font-size="8px" fill="#000000" x="79.45250545951423" y="70.42495114340674" transform="rotate(180 79.45250545951423 67.42495114340674)" font-family="sans-serif">FLY_TO</text></g><g class="relationship" transform="translate(-75.14393011850781 64.47010199379464) rotate(371.4674420950968)"><path class="outline" fill="#A5ABB6" stroke="none" d="M 5.987513214418485,24.277555179777966 L 6.953439040707552,24.018736134675446 A 53.17194461636421 53.17194461636421 0 0 0 38.28960184611565,59.51426475083071 L 37.91301242705221,60.4406450234237 A 54.17194461636421 54.17194461636421 0 0 1 5.987513214418485,24.277555179777966 Z M 73.03258656567013,62.39079421275493 L 72.7608777855951,61.42841469363052 A 53.17194461636421 53.17194461636421 0 0 0 107.83432076967479,29.620534406666323 L 105.04032512701203,28.528019716247247 L 110.84918765442976,23.283297022189714 L 111.55964829322515,31.07722066055842 L 108.76565265056239,29.984705970139345 A 54.17194461636421 54.17194461636421 0 0 1 73.03258656567013,62.39079421275493"/><text text-anchor="middle" pointer-events="none" font-size="8px" fill="#000000" x="55.337837061134444" y="66.8462122572185" font-family="sans-serif">FLY_TO</text></g><g class="relationship" transform="translate(-75.14393011850781 64.47010199379464) rotate(191.46747006069978)"><path class="outline" fill="#A5ABB6" stroke="none" d="M 5.987513214418485,24.277555179777966 L 6.953439040707552,24.018736134675446 A 78.10063662421472 78.10063662421472 0 0 0 61.87980351704875,79.16343923704203 L 61.61715447377263,80.12833067138381 A 79.10063662421472 79.10063662421472 0 0 1 5.987513214418485,24.277555179777966 Z M 97.00412276166573,81.54425174172589 L 96.81940538921997,80.56146005865325 A 78.10063662421472 78.10063662421472 0 0 0 155.97607777640619,29.981504474341666 L 153.14960081214772,28.97600560784986 L 158.79332129226347,23.5539747021539 L 159.74471372875078,31.32216962966407 L 156.91823676449232,30.316670763172265 A 79.10063662421472 79.10063662421472 0 0 1 97.00412276166573,81.54425174172589"/><text text-anchor="middle" pointer-events="none" font-size="8px" fill="#000000" x="79.2503675890828" y="85.34259620032039" transform="rotate(180 79.2503675890828 82.34259620032039)" font-family="sans-serif">FLY_TO</text></g></g><g class="layer nodes"><g class="node" transform="translate(42.415015619725345,88.31818072626382)"><circle class="outline" cx="0" cy="0" r="25" fill="#FFC454" stroke="#d7a013" stroke-width="2px"/><text text-anchor="middle" pointer-events="none" font-family="sans-serif" dy="1.5625" font-size="25" fill="#2A2C34"/><text text-anchor="middle" pointer-events="none" x="0" y="5" font-size="10px" fill="#2A2C34" font-family="sans-serif"> MSN</text></g><g class="node" transform="translate(-75.14393011850781,64.47010199379464)"><circle class="outline" cx="0" cy="0" r="25" fill="#FFC454" stroke="#d7a013" stroke-width="2px"/><text text-anchor="middle" pointer-events="none" font-family="sans-serif" dy="1.5625" font-size="25" fill="#2A2C34"/><text text-anchor="middle" pointer-events="none" x="0" y="5" font-size="10px" fill="#2A2C34" font-family="sans-serif"> ORD</text></g><g class="node" transform="translate(-238.9792679381173,31.23428315743344)"><circle class="outline" cx="0" cy="0" r="25" fill="#FFC454" stroke="#d7a013" stroke-width="2px"/><text text-anchor="middle" pointer-events="none" font-family="sans-serif" dy="1.5625" font-size="25" fill="#2A2C34"/><text text-anchor="middle" pointer-events="none" x="0" y="5" font-size="10px" fill="#2A2C34" font-family="sans-serif"> GRR</text></g></g></svg>